<svg xmlns="http://www.w3.org/2000/svg" width="980" height="620" viewBox="0 0 980 620">
<rect width="100%" height="100%" fill="white" />
<style>
text { font-family: Arial, sans-serif; fill: #111827; }
.small { font-size: 12px; }
.axis { font-size: 12px; fill: #374151; }
.title { font-size: 20px; font-weight: bold; }
.subtitle { font-size: 13px; fill: #4b5563; }
.legend { font-size: 12px; }
</style>
<text x="90" y="35" class="title" text-anchor="start">Subgroup metric comparison</text>
<text x="90" y="58" class="subtitle" text-anchor="start">RMSE by season on the test split.</text>
<line x1="90" y1="540" x2="940" y2="540" stroke="#111827"/>
<line x1="90" y1="80" x2="90" y2="540" stroke="#111827"/>
<text x="515.0" y="600" class="axis" text-anchor="middle">season</text>
<text x="24" y="310.0" class="axis" text-anchor="middle" transform="rotate(-90 24 310.0)">RMSE</text>
<line x1="90" y1="540.0" x2="940" y2="540.0" stroke="#e5e7eb"/>
<text x="80" y="544.0" class="axis" text-anchor="end">0.000</text>
<line x1="90" y1="425.0" x2="940" y2="425.0" stroke="#e5e7eb"/>
<text x="80" y="429.0" class="axis" text-anchor="end">19.295</text>
<line x1="90" y1="310.0" x2="940" y2="310.0" stroke="#e5e7eb"/>
<text x="80" y="314.0" class="axis" text-anchor="end">38.590</text>
<line x1="90" y1="195.0" x2="940" y2="195.0" stroke="#e5e7eb"/>
<text x="80" y="199.0" class="axis" text-anchor="end">57.886</text>
<line x1="90" y1="80.0" x2="940" y2="80.0" stroke="#e5e7eb"/>
<text x="80" y="84.0" class="axis" text-anchor="end">77.181</text>
<rect x="132.5" y="139.99999999999994" width="198.33333333333331" height="400.00000000000006" fill="#2563eb" opacity="0.85"/>
<text x="231.66666666666666" y="131.99999999999994" class="small" text-anchor="middle">67.114</text>
<text x="231.66666666666666" y="568" class="axis" text-anchor="middle" transform="rotate(-25 231.66666666666666 568)">season_1</text>
<rect x="415.8333333333333" y="162.78807106682962" width="198.33333333333331" height="377.2119289331704" fill="#2563eb" opacity="0.85"/>
<text x="515.0" y="154.78807106682962" class="small" text-anchor="middle">63.290</text>
<text x="515.0" y="568" class="axis" text-anchor="middle" transform="rotate(-25 515.0 568)">season_4</text>
<rect x="699.1666666666666" y="233.51437906649852" width="198.33333333333331" height="306.4856209335015" fill="#2563eb" opacity="0.85"/>
<text x="798.3333333333333" y="225.51437906649852" class="small" text-anchor="middle">51.424</text>
<text x="798.3333333333333" y="568" class="axis" text-anchor="middle" transform="rotate(-25 798.3333333333333 568)">season_3</text>
</svg>