<svg xmlns="http://www.w3.org/2000/svg" width="980" height="620" viewBox="0 0 980 620">
<rect width="100%" height="100%" fill="white" />
<style>
text { font-family: Arial, sans-serif; fill: #111827; }
.small { font-size: 12px; }
.axis { font-size: 12px; fill: #374151; }
.title { font-size: 20px; font-weight: bold; }
.subtitle { font-size: 13px; fill: #4b5563; }
.legend { font-size: 12px; }
</style>
<text x="90" y="35" class="title" text-anchor="start">Metric vs memory</text>
<text x="90" y="58" class="subtitle" text-anchor="start">Resident memory versus macro-F1.</text>
<line x1="90" y1="540" x2="940" y2="540" stroke="#111827"/>
<line x1="90" y1="80" x2="90" y2="540" stroke="#111827"/>
<line x1="90" y1="540.0" x2="940" y2="540.0" stroke="#e5e7eb"/>
<text x="80" y="544.0" class="axis" text-anchor="end">0.441</text>
<line x1="90" y1="425.0" x2="940" y2="425.0" stroke="#e5e7eb"/>
<text x="80" y="429.0" class="axis" text-anchor="end">0.534</text>
<line x1="90" y1="310.0000000000001" x2="940" y2="310.0000000000001" stroke="#e5e7eb"/>
<text x="80" y="314.0000000000001" class="axis" text-anchor="end">0.628</text>
<line x1="90" y1="195.00000000000006" x2="940" y2="195.00000000000006" stroke="#e5e7eb"/>
<text x="80" y="199.00000000000006" class="axis" text-anchor="end">0.722</text>
<line x1="90" y1="80.0" x2="940" y2="80.0" stroke="#e5e7eb"/>
<text x="80" y="84.0" class="axis" text-anchor="end">0.815</text>
<line x1="90.0" y1="80" x2="90.0" y2="540" stroke="#f3f4f6"/>
<text x="90.0" y="562" class="axis" text-anchor="middle">2018.51</text>
<line x1="260.00000000000006" y1="80" x2="260.00000000000006" y2="540" stroke="#f3f4f6"/>
<text x="260.00000000000006" y="562" class="axis" text-anchor="middle">2535.13</text>
<line x1="430.0" y1="80" x2="430.0" y2="540" stroke="#f3f4f6"/>
<text x="430.0" y="562" class="axis" text-anchor="middle">3051.76</text>
<line x1="600.0000000000002" y1="80" x2="600.0000000000002" y2="540" stroke="#f3f4f6"/>
<text x="600.0000000000002" y="562" class="axis" text-anchor="middle">3568.39</text>
<line x1="769.9999999999999" y1="80" x2="769.9999999999999" y2="540" stroke="#f3f4f6"/>
<text x="769.9999999999999" y="562" class="axis" text-anchor="middle">4085.01</text>
<line x1="940.0" y1="80" x2="940.0" y2="540" stroke="#f3f4f6"/>
<text x="940.0" y="562" class="axis" text-anchor="middle">4601.64</text>
<text x="515.0" y="600" class="axis" text-anchor="middle">peak rss (MB)</text>
<text x="24" y="310.0" class="axis" text-anchor="middle" transform="rotate(-90 24 310.0)">macro_f1</text>
<polyline points="106.34615384615387,519.0909090909091 881.7259646233788,295.8772577058436 886.5551454967951,100.90909090909088 923.6538461538462,176.10076651721118" fill="none" stroke="#dc2626" stroke-width="3"/>
<circle cx="106.34615384615387" cy="519.0909090909091" r="3.5" fill="#dc2626"/>
<circle cx="881.7259646233788" cy="295.8772577058436" r="3.5" fill="#dc2626"/>
<circle cx="886.5551454967951" cy="100.90909090909088" r="3.5" fill="#dc2626"/>
<circle cx="923.6538461538462" cy="176.10076651721118" r="3.5" fill="#dc2626"/>
<line x1="760" y1="28" x2="780" y2="28" stroke="#dc2626" stroke-width="3"/>
<text x="788" y="32" class="legend" text-anchor="start">macro_f1</text>
</svg>