<svg xmlns="http://www.w3.org/2000/svg" width="1040" height="378" viewBox="0 0 1040 378">
<rect width="100%" height="100%" fill="white" />
<style>
text { font-family: Arial, sans-serif; fill: #111827; }
.small { font-size: 12px; }
.axis { font-size: 12px; fill: #374151; }
.title { font-size: 20px; font-weight: bold; }
.subtitle { font-size: 13px; fill: #4b5563; }
.legend { font-size: 12px; }
</style>
<text x="40" y="35" class="title" text-anchor="start">Common failure slice summary</text>
<text x="40" y="58" class="subtitle" text-anchor="start">Highest-error combinations of working day and weather.</text>
<rect x="40.0" y="90" width="320.0" height="34" fill="#e5e7eb" stroke="#d1d5db"/>
<text x="48.0" y="112" class="small" text-anchor="start">workingday</text>
<rect x="360.0" y="90" width="320.0" height="34" fill="#e5e7eb" stroke="#d1d5db"/>
<text x="368.0" y="112" class="small" text-anchor="start">weather</text>
<rect x="680.0" y="90" width="320.0" height="34" fill="#e5e7eb" stroke="#d1d5db"/>
<text x="688.0" y="112" class="small" text-anchor="start">MAE</text>
<rect x="40.0" y="124" width="320.0" height="34" fill="#ffffff" stroke="#e5e7eb"/>
<text x="48.0" y="146" class="small" text-anchor="start">0</text>
<rect x="360.0" y="124" width="320.0" height="34" fill="#ffffff" stroke="#e5e7eb"/>
<text x="368.0" y="146" class="small" text-anchor="start">3</text>
<rect x="680.0" y="124" width="320.0" height="34" fill="#ffffff" stroke="#e5e7eb"/>
<text x="688.0" y="146" class="small" text-anchor="start">73.30</text>
<rect x="40.0" y="158" width="320.0" height="34" fill="#f9fafb" stroke="#e5e7eb"/>
<text x="48.0" y="180" class="small" text-anchor="start">1</text>
<rect x="360.0" y="158" width="320.0" height="34" fill="#f9fafb" stroke="#e5e7eb"/>
<text x="368.0" y="180" class="small" text-anchor="start">3</text>
<rect x="680.0" y="158" width="320.0" height="34" fill="#f9fafb" stroke="#e5e7eb"/>
<text x="688.0" y="180" class="small" text-anchor="start">64.58</text>
<rect x="40.0" y="192" width="320.0" height="34" fill="#ffffff" stroke="#e5e7eb"/>
<text x="48.0" y="214" class="small" text-anchor="start">0</text>
<rect x="360.0" y="192" width="320.0" height="34" fill="#ffffff" stroke="#e5e7eb"/>
<text x="368.0" y="214" class="small" text-anchor="start">2</text>
<rect x="680.0" y="192" width="320.0" height="34" fill="#ffffff" stroke="#e5e7eb"/>
<text x="688.0" y="214" class="small" text-anchor="start">44.63</text>
<rect x="40.0" y="226" width="320.0" height="34" fill="#f9fafb" stroke="#e5e7eb"/>
<text x="48.0" y="248" class="small" text-anchor="start">0</text>
<rect x="360.0" y="226" width="320.0" height="34" fill="#f9fafb" stroke="#e5e7eb"/>
<text x="368.0" y="248" class="small" text-anchor="start">1</text>
<rect x="680.0" y="226" width="320.0" height="34" fill="#f9fafb" stroke="#e5e7eb"/>
<text x="688.0" y="248" class="small" text-anchor="start">38.36</text>
<rect x="40.0" y="260" width="320.0" height="34" fill="#ffffff" stroke="#e5e7eb"/>
<text x="48.0" y="282" class="small" text-anchor="start">1</text>
<rect x="360.0" y="260" width="320.0" height="34" fill="#ffffff" stroke="#e5e7eb"/>
<text x="368.0" y="282" class="small" text-anchor="start">2</text>
<rect x="680.0" y="260" width="320.0" height="34" fill="#ffffff" stroke="#e5e7eb"/>
<text x="688.0" y="282" class="small" text-anchor="start">37.60</text>
<rect x="40.0" y="294" width="320.0" height="34" fill="#f9fafb" stroke="#e5e7eb"/>
<text x="48.0" y="316" class="small" text-anchor="start">1</text>
<rect x="360.0" y="294" width="320.0" height="34" fill="#f9fafb" stroke="#e5e7eb"/>
<text x="368.0" y="316" class="small" text-anchor="start">1</text>
<rect x="680.0" y="294" width="320.0" height="34" fill="#f9fafb" stroke="#e5e7eb"/>
<text x="688.0" y="316" class="small" text-anchor="start">32.04</text>
</svg>