<svg xmlns="http://www.w3.org/2000/svg" width="980" height="620" viewBox="0 0 980 620">
<rect width="100%" height="100%" fill="white" />
<style>
text { font-family: Arial, sans-serif; fill: #111827; }
.small { font-size: 12px; }
.axis { font-size: 12px; fill: #374151; }
.title { font-size: 20px; font-weight: bold; }
.subtitle { font-size: 13px; fill: #4b5563; }
.legend { font-size: 12px; }
</style>
<text x="90" y="35" class="title" text-anchor="start">Error slice by income bucket</text>
<text x="90" y="58" class="subtitle" text-anchor="start">RMSE varies across income ranges.</text>
<line x1="90" y1="540" x2="940" y2="540" stroke="#111827"/>
<line x1="90" y1="80" x2="90" y2="540" stroke="#111827"/>
<text x="515.0" y="600" class="axis" text-anchor="middle">MedInc quantile</text>
<text x="24" y="310.0" class="axis" text-anchor="middle" transform="rotate(-90 24 310.0)">RMSE</text>
<line x1="90" y1="540.0" x2="940" y2="540.0" stroke="#e5e7eb"/>
<text x="80" y="544.0" class="axis" text-anchor="end">0.000</text>
<line x1="90" y1="425.0" x2="940" y2="425.0" stroke="#e5e7eb"/>
<text x="80" y="429.0" class="axis" text-anchor="end">0.151</text>
<line x1="90" y1="310.0" x2="940" y2="310.0" stroke="#e5e7eb"/>
<text x="80" y="314.0" class="axis" text-anchor="end">0.303</text>
<line x1="90" y1="195.0" x2="940" y2="195.0" stroke="#e5e7eb"/>
<text x="80" y="199.0" class="axis" text-anchor="end">0.454</text>
<line x1="90" y1="80.0" x2="940" y2="80.0" stroke="#e5e7eb"/>
<text x="80" y="84.0" class="axis" text-anchor="end">0.606</text>
<rect x="115.5" y="139.99999999999994" width="118.99999999999999" height="400.00000000000006" fill="#2563eb" opacity="0.85"/>
<text x="175.0" y="131.99999999999994" class="small" text-anchor="middle">0.527</text>
<text x="175.0" y="568" class="axis" text-anchor="middle" transform="rotate(-25 175.0 568)">(5.064, 15.0]</text>
<rect x="285.5" y="168.10311952327874" width="118.99999999999999" height="371.89688047672126" fill="#2563eb" opacity="0.85"/>
<text x="345.0" y="160.10311952327874" class="small" text-anchor="middle">0.490</text>
<text x="345.0" y="568" class="axis" text-anchor="middle" transform="rotate(-25 345.0 568)">(3.131, 3.911]</text>
<rect x="455.5" y="188.23867096641288" width="118.99999999999999" height="351.7613290335871" fill="#2563eb" opacity="0.85"/>
<text x="515.0" y="180.23867096641288" class="small" text-anchor="middle">0.463</text>
<text x="515.0" y="568" class="axis" text-anchor="middle" transform="rotate(-25 515.0 568)">(3.911, 5.064]</text>
<rect x="625.5" y="197.61069645050566" width="118.99999999999999" height="342.38930354949434" fill="#2563eb" opacity="0.85"/>
<text x="685.0" y="189.61069645050566" class="small" text-anchor="middle">0.451</text>
<text x="685.0" y="568" class="axis" text-anchor="middle" transform="rotate(-25 685.0 568)">(2.346, 3.131]</text>
<rect x="795.5" y="220.0386950936579" width="118.99999999999999" height="319.9613049063421" fill="#2563eb" opacity="0.85"/>
<text x="855.0" y="212.0386950936579" class="small" text-anchor="middle">0.421</text>
<text x="855.0" y="568" class="axis" text-anchor="middle" transform="rotate(-25 855.0 568)">(0.499, 2.346]</text>
</svg>