<svg xmlns="http://www.w3.org/2000/svg" width="1040" height="514" viewBox="0 0 1040 514">
<rect width="100%" height="100%" fill="white" />
<style>
text { font-family: Arial, sans-serif; fill: #111827; }
.small { font-size: 12px; }
.axis { font-size: 12px; fill: #374151; }
.title { font-size: 20px; font-weight: bold; }
.subtitle { font-size: 13px; fill: #4b5563; }
.legend { font-size: 12px; }
</style>
<text x="40" y="35" class="title" text-anchor="start">Worst prediction cases</text>
<text x="40" y="58" class="subtitle" text-anchor="start">Largest absolute errors on the test split.</text>
<rect x="40.0" y="90" width="137.14285714285714" height="34" fill="#e5e7eb" stroke="#d1d5db"/>
<text x="48.0" y="112" class="small" text-anchor="start">MedInc</text>
<rect x="177.14285714285714" y="90" width="137.14285714285714" height="34" fill="#e5e7eb" stroke="#d1d5db"/>
<text x="185.14285714285714" y="112" class="small" text-anchor="start">AveRooms</text>
<rect x="314.2857142857143" y="90" width="137.14285714285714" height="34" fill="#e5e7eb" stroke="#d1d5db"/>
<text x="322.2857142857143" y="112" class="small" text-anchor="start">Lat</text>
<rect x="451.42857142857144" y="90" width="137.14285714285714" height="34" fill="#e5e7eb" stroke="#d1d5db"/>
<text x="459.42857142857144" y="112" class="small" text-anchor="start">Lon</text>
<rect x="588.5714285714286" y="90" width="137.14285714285714" height="34" fill="#e5e7eb" stroke="#d1d5db"/>
<text x="596.5714285714286" y="112" class="small" text-anchor="start">target</text>
<rect x="725.7142857142857" y="90" width="137.14285714285714" height="34" fill="#e5e7eb" stroke="#d1d5db"/>
<text x="733.7142857142857" y="112" class="small" text-anchor="start">pred</text>
<rect x="862.8571428571429" y="90" width="137.14285714285714" height="34" fill="#e5e7eb" stroke="#d1d5db"/>
<text x="870.8571428571429" y="112" class="small" text-anchor="start">abs err</text>
<rect x="40.0" y="124" width="137.14285714285714" height="34" fill="#ffffff" stroke="#e5e7eb"/>
<text x="48.0" y="146" class="small" text-anchor="start">1.966</text>
<rect x="177.14285714285714" y="124" width="137.14285714285714" height="34" fill="#ffffff" stroke="#e5e7eb"/>
<text x="185.14285714285714" y="146" class="small" text-anchor="start">4.795</text>
<rect x="314.2857142857143" y="124" width="137.14285714285714" height="34" fill="#ffffff" stroke="#e5e7eb"/>
<text x="322.2857142857143" y="146" class="small" text-anchor="start">33.72</text>
<rect x="451.42857142857144" y="124" width="137.14285714285714" height="34" fill="#ffffff" stroke="#e5e7eb"/>
<text x="459.42857142857144" y="146" class="small" text-anchor="start">-117.7</text>
<rect x="588.5714285714286" y="124" width="137.14285714285714" height="34" fill="#ffffff" stroke="#e5e7eb"/>
<text x="596.5714285714286" y="146" class="small" text-anchor="start">5.0</text>
<rect x="725.7142857142857" y="124" width="137.14285714285714" height="34" fill="#ffffff" stroke="#e5e7eb"/>
<text x="733.7142857142857" y="146" class="small" text-anchor="start">2.021</text>
<rect x="862.8571428571429" y="124" width="137.14285714285714" height="34" fill="#ffffff" stroke="#e5e7eb"/>
<text x="870.8571428571429" y="146" class="small" text-anchor="start">2.979</text>
<rect x="40.0" y="158" width="137.14285714285714" height="34" fill="#f9fafb" stroke="#e5e7eb"/>
<text x="48.0" y="180" class="small" text-anchor="start">3.773</text>
<rect x="177.14285714285714" y="158" width="137.14285714285714" height="34" fill="#f9fafb" stroke="#e5e7eb"/>
<text x="185.14285714285714" y="180" class="small" text-anchor="start">10.954</text>
<rect x="314.2857142857143" y="158" width="137.14285714285714" height="34" fill="#f9fafb" stroke="#e5e7eb"/>
<text x="322.2857142857143" y="180" class="small" text-anchor="start">33.75</text>
<rect x="451.42857142857144" y="158" width="137.14285714285714" height="34" fill="#f9fafb" stroke="#e5e7eb"/>
<text x="459.42857142857144" y="180" class="small" text-anchor="start">-116.43</text>
<rect x="588.5714285714286" y="158" width="137.14285714285714" height="34" fill="#f9fafb" stroke="#e5e7eb"/>
<text x="596.5714285714286" y="180" class="small" text-anchor="start">5.0</text>
<rect x="725.7142857142857" y="158" width="137.14285714285714" height="34" fill="#f9fafb" stroke="#e5e7eb"/>
<text x="733.7142857142857" y="180" class="small" text-anchor="start">2.033</text>
<rect x="862.8571428571429" y="158" width="137.14285714285714" height="34" fill="#f9fafb" stroke="#e5e7eb"/>
<text x="870.8571428571429" y="180" class="small" text-anchor="start">2.967</text>
<rect x="40.0" y="192" width="137.14285714285714" height="34" fill="#ffffff" stroke="#e5e7eb"/>
<text x="48.0" y="214" class="small" text-anchor="start">1.17</text>
<rect x="177.14285714285714" y="192" width="137.14285714285714" height="34" fill="#ffffff" stroke="#e5e7eb"/>
<text x="185.14285714285714" y="214" class="small" text-anchor="start">2.436</text>
<rect x="314.2857142857143" y="192" width="137.14285714285714" height="34" fill="#ffffff" stroke="#e5e7eb"/>
<text x="322.2857142857143" y="214" class="small" text-anchor="start">37.87</text>
<rect x="451.42857142857144" y="192" width="137.14285714285714" height="34" fill="#ffffff" stroke="#e5e7eb"/>
<text x="459.42857142857144" y="214" class="small" text-anchor="start">-122.25</text>
<rect x="588.5714285714286" y="192" width="137.14285714285714" height="34" fill="#ffffff" stroke="#e5e7eb"/>
<text x="596.5714285714286" y="214" class="small" text-anchor="start">5.0</text>
<rect x="725.7142857142857" y="192" width="137.14285714285714" height="34" fill="#ffffff" stroke="#e5e7eb"/>
<text x="733.7142857142857" y="214" class="small" text-anchor="start">2.112</text>
<rect x="862.8571428571429" y="192" width="137.14285714285714" height="34" fill="#ffffff" stroke="#e5e7eb"/>
<text x="870.8571428571429" y="214" class="small" text-anchor="start">2.888</text>
<rect x="40.0" y="226" width="137.14285714285714" height="34" fill="#f9fafb" stroke="#e5e7eb"/>
<text x="48.0" y="248" class="small" text-anchor="start">0.5</text>
<rect x="177.14285714285714" y="226" width="137.14285714285714" height="34" fill="#f9fafb" stroke="#e5e7eb"/>
<text x="185.14285714285714" y="248" class="small" text-anchor="start">7.677</text>
<rect x="314.2857142857143" y="226" width="137.14285714285714" height="34" fill="#f9fafb" stroke="#e5e7eb"/>
<text x="322.2857142857143" y="248" class="small" text-anchor="start">34.15</text>
<rect x="451.42857142857144" y="226" width="137.14285714285714" height="34" fill="#f9fafb" stroke="#e5e7eb"/>
<text x="459.42857142857144" y="248" class="small" text-anchor="start">-118.08</text>
<rect x="588.5714285714286" y="226" width="137.14285714285714" height="34" fill="#f9fafb" stroke="#e5e7eb"/>
<text x="596.5714285714286" y="248" class="small" text-anchor="start">5.0</text>
<rect x="725.7142857142857" y="226" width="137.14285714285714" height="34" fill="#f9fafb" stroke="#e5e7eb"/>
<text x="733.7142857142857" y="248" class="small" text-anchor="start">2.126</text>
<rect x="862.8571428571429" y="226" width="137.14285714285714" height="34" fill="#f9fafb" stroke="#e5e7eb"/>
<text x="870.8571428571429" y="248" class="small" text-anchor="start">2.874</text>
<rect x="40.0" y="260" width="137.14285714285714" height="34" fill="#ffffff" stroke="#e5e7eb"/>
<text x="48.0" y="282" class="small" text-anchor="start">2.367</text>
<rect x="177.14285714285714" y="260" width="137.14285714285714" height="34" fill="#ffffff" stroke="#e5e7eb"/>
<text x="185.14285714285714" y="282" class="small" text-anchor="start">3.572</text>
<rect x="314.2857142857143" y="260" width="137.14285714285714" height="34" fill="#ffffff" stroke="#e5e7eb"/>
<text x="322.2857142857143" y="282" class="small" text-anchor="start">34.15</text>
<rect x="451.42857142857144" y="260" width="137.14285714285714" height="34" fill="#ffffff" stroke="#e5e7eb"/>
<text x="459.42857142857144" y="282" class="small" text-anchor="start">-118.33</text>
<rect x="588.5714285714286" y="260" width="137.14285714285714" height="34" fill="#ffffff" stroke="#e5e7eb"/>
<text x="596.5714285714286" y="282" class="small" text-anchor="start">0.175</text>
<rect x="725.7142857142857" y="260" width="137.14285714285714" height="34" fill="#ffffff" stroke="#e5e7eb"/>
<text x="733.7142857142857" y="282" class="small" text-anchor="start">3.016</text>
<rect x="862.8571428571429" y="260" width="137.14285714285714" height="34" fill="#ffffff" stroke="#e5e7eb"/>
<text x="870.8571428571429" y="282" class="small" text-anchor="start">2.841</text>
<rect x="40.0" y="294" width="137.14285714285714" height="34" fill="#f9fafb" stroke="#e5e7eb"/>
<text x="48.0" y="316" class="small" text-anchor="start">7.575</text>
<rect x="177.14285714285714" y="294" width="137.14285714285714" height="34" fill="#f9fafb" stroke="#e5e7eb"/>
<text x="185.14285714285714" y="316" class="small" text-anchor="start">3.143</text>
<rect x="314.2857142857143" y="294" width="137.14285714285714" height="34" fill="#f9fafb" stroke="#e5e7eb"/>
<text x="322.2857142857143" y="316" class="small" text-anchor="start">34.02</text>
<rect x="451.42857142857144" y="294" width="137.14285714285714" height="34" fill="#f9fafb" stroke="#e5e7eb"/>
<text x="459.42857142857144" y="316" class="small" text-anchor="start">-118.21</text>
<rect x="588.5714285714286" y="294" width="137.14285714285714" height="34" fill="#f9fafb" stroke="#e5e7eb"/>
<text x="596.5714285714286" y="316" class="small" text-anchor="start">0.675</text>
<rect x="725.7142857142857" y="294" width="137.14285714285714" height="34" fill="#f9fafb" stroke="#e5e7eb"/>
<text x="733.7142857142857" y="316" class="small" text-anchor="start">3.246</text>
<rect x="862.8571428571429" y="294" width="137.14285714285714" height="34" fill="#f9fafb" stroke="#e5e7eb"/>
<text x="870.8571428571429" y="316" class="small" text-anchor="start">2.571</text>
<rect x="40.0" y="328" width="137.14285714285714" height="34" fill="#ffffff" stroke="#e5e7eb"/>
<text x="48.0" y="350" class="small" text-anchor="start">7.3</text>
<rect x="177.14285714285714" y="328" width="137.14285714285714" height="34" fill="#ffffff" stroke="#e5e7eb"/>
<text x="185.14285714285714" y="350" class="small" text-anchor="start">5.724</text>
<rect x="314.2857142857143" y="328" width="137.14285714285714" height="34" fill="#ffffff" stroke="#e5e7eb"/>
<text x="322.2857142857143" y="350" class="small" text-anchor="start">34.17</text>
<rect x="451.42857142857144" y="328" width="137.14285714285714" height="34" fill="#ffffff" stroke="#e5e7eb"/>
<text x="459.42857142857144" y="350" class="small" text-anchor="start">-119.08</text>
<rect x="588.5714285714286" y="328" width="137.14285714285714" height="34" fill="#ffffff" stroke="#e5e7eb"/>
<text x="596.5714285714286" y="350" class="small" text-anchor="start">1.25</text>
<rect x="725.7142857142857" y="328" width="137.14285714285714" height="34" fill="#ffffff" stroke="#e5e7eb"/>
<text x="733.7142857142857" y="350" class="small" text-anchor="start">3.701</text>
<rect x="862.8571428571429" y="328" width="137.14285714285714" height="34" fill="#ffffff" stroke="#e5e7eb"/>
<text x="870.8571428571429" y="350" class="small" text-anchor="start">2.451</text>
<rect x="40.0" y="362" width="137.14285714285714" height="34" fill="#f9fafb" stroke="#e5e7eb"/>
<text x="48.0" y="384" class="small" text-anchor="start">4.583</text>
<rect x="177.14285714285714" y="362" width="137.14285714285714" height="34" fill="#f9fafb" stroke="#e5e7eb"/>
<text x="185.14285714285714" y="384" class="small" text-anchor="start">7.278</text>
<rect x="314.2857142857143" y="362" width="137.14285714285714" height="34" fill="#f9fafb" stroke="#e5e7eb"/>
<text x="322.2857142857143" y="384" class="small" text-anchor="start">34.28</text>
<rect x="451.42857142857144" y="362" width="137.14285714285714" height="34" fill="#f9fafb" stroke="#e5e7eb"/>
<text x="459.42857142857144" y="384" class="small" text-anchor="start">-119.04</text>
<rect x="588.5714285714286" y="362" width="137.14285714285714" height="34" fill="#f9fafb" stroke="#e5e7eb"/>
<text x="596.5714285714286" y="384" class="small" text-anchor="start">5.0</text>
<rect x="725.7142857142857" y="362" width="137.14285714285714" height="34" fill="#f9fafb" stroke="#e5e7eb"/>
<text x="733.7142857142857" y="384" class="small" text-anchor="start">2.555</text>
<rect x="862.8571428571429" y="362" width="137.14285714285714" height="34" fill="#f9fafb" stroke="#e5e7eb"/>
<text x="870.8571428571429" y="384" class="small" text-anchor="start">2.445</text>
<rect x="40.0" y="396" width="137.14285714285714" height="34" fill="#ffffff" stroke="#e5e7eb"/>
<text x="48.0" y="418" class="small" text-anchor="start">3.232</text>
<rect x="177.14285714285714" y="396" width="137.14285714285714" height="34" fill="#ffffff" stroke="#e5e7eb"/>
<text x="185.14285714285714" y="418" class="small" text-anchor="start">7.041</text>
<rect x="314.2857142857143" y="396" width="137.14285714285714" height="34" fill="#ffffff" stroke="#e5e7eb"/>
<text x="322.2857142857143" y="418" class="small" text-anchor="start">38.71</text>
<rect x="451.42857142857144" y="396" width="137.14285714285714" height="34" fill="#ffffff" stroke="#e5e7eb"/>
<text x="459.42857142857144" y="418" class="small" text-anchor="start">-121.19</text>
<rect x="588.5714285714286" y="396" width="137.14285714285714" height="34" fill="#ffffff" stroke="#e5e7eb"/>
<text x="596.5714285714286" y="418" class="small" text-anchor="start">3.908</text>
<rect x="725.7142857142857" y="396" width="137.14285714285714" height="34" fill="#ffffff" stroke="#e5e7eb"/>
<text x="733.7142857142857" y="418" class="small" text-anchor="start">1.66</text>
<rect x="862.8571428571429" y="396" width="137.14285714285714" height="34" fill="#ffffff" stroke="#e5e7eb"/>
<text x="870.8571428571429" y="418" class="small" text-anchor="start">2.248</text>
<rect x="40.0" y="430" width="137.14285714285714" height="34" fill="#f9fafb" stroke="#e5e7eb"/>
<text x="48.0" y="452" class="small" text-anchor="start">2.588</text>
<rect x="177.14285714285714" y="430" width="137.14285714285714" height="34" fill="#f9fafb" stroke="#e5e7eb"/>
<text x="185.14285714285714" y="452" class="small" text-anchor="start">3.287</text>
<rect x="314.2857142857143" y="430" width="137.14285714285714" height="34" fill="#f9fafb" stroke="#e5e7eb"/>
<text x="322.2857142857143" y="452" class="small" text-anchor="start">37.8</text>
<rect x="451.42857142857144" y="430" width="137.14285714285714" height="34" fill="#f9fafb" stroke="#e5e7eb"/>
<text x="459.42857142857144" y="452" class="small" text-anchor="start">-122.41</text>
<rect x="588.5714285714286" y="430" width="137.14285714285714" height="34" fill="#f9fafb" stroke="#e5e7eb"/>
<text x="596.5714285714286" y="452" class="small" text-anchor="start">5.0</text>
<rect x="725.7142857142857" y="430" width="137.14285714285714" height="34" fill="#f9fafb" stroke="#e5e7eb"/>
<text x="733.7142857142857" y="452" class="small" text-anchor="start">2.761</text>
<rect x="862.8571428571429" y="430" width="137.14285714285714" height="34" fill="#f9fafb" stroke="#e5e7eb"/>
<text x="870.8571428571429" y="452" class="small" text-anchor="start">2.239</text>
</svg>