<svg xmlns="http://www.w3.org/2000/svg" width="1040" height="446" viewBox="0 0 1040 446">
<rect width="100%" height="100%" fill="white" />
<style>
text { font-family: Arial, sans-serif; fill: #111827; }
.small { font-size: 12px; }
.axis { font-size: 12px; fill: #374151; }
.title { font-size: 20px; font-weight: bold; }
.subtitle { font-size: 13px; fill: #4b5563; }
.legend { font-size: 12px; }
</style>
<text x="40" y="35" class="title" text-anchor="start">High-confidence failure examples</text>
<text x="40" y="58" class="subtitle" text-anchor="start">Representative mistakes from the best model.</text>
<rect x="40.0" y="90" width="137.14285714285714" height="34" fill="#e5e7eb" stroke="#d1d5db"/>
<text x="48.0" y="112" class="small" text-anchor="start">age</text>
<rect x="177.14285714285714" y="90" width="137.14285714285714" height="34" fill="#e5e7eb" stroke="#d1d5db"/>
<text x="185.14285714285714" y="112" class="small" text-anchor="start">education</text>
<rect x="314.2857142857143" y="90" width="137.14285714285714" height="34" fill="#e5e7eb" stroke="#d1d5db"/>
<text x="322.2857142857143" y="112" class="small" text-anchor="start">occupation</text>
<rect x="451.42857142857144" y="90" width="137.14285714285714" height="34" fill="#e5e7eb" stroke="#d1d5db"/>
<text x="459.42857142857144" y="112" class="small" text-anchor="start">hours</text>
<rect x="588.5714285714286" y="90" width="137.14285714285714" height="34" fill="#e5e7eb" stroke="#d1d5db"/>
<text x="596.5714285714286" y="112" class="small" text-anchor="start">label</text>
<rect x="725.7142857142857" y="90" width="137.14285714285714" height="34" fill="#e5e7eb" stroke="#d1d5db"/>
<text x="733.7142857142857" y="112" class="small" text-anchor="start">pred</text>
<rect x="862.8571428571429" y="90" width="137.14285714285714" height="34" fill="#e5e7eb" stroke="#d1d5db"/>
<text x="870.8571428571429" y="112" class="small" text-anchor="start">score</text>
<rect x="40.0" y="124" width="137.14285714285714" height="34" fill="#ffffff" stroke="#e5e7eb"/>
<text x="48.0" y="146" class="small" text-anchor="start">45</text>
<rect x="177.14285714285714" y="124" width="137.14285714285714" height="34" fill="#ffffff" stroke="#e5e7eb"/>
<text x="185.14285714285714" y="146" class="small" text-anchor="start">Doctorate</text>
<rect x="314.2857142857143" y="124" width="137.14285714285714" height="34" fill="#ffffff" stroke="#e5e7eb"/>
<text x="322.2857142857143" y="146" class="small" text-anchor="start">Exec-managerial</text>
<rect x="451.42857142857144" y="124" width="137.14285714285714" height="34" fill="#ffffff" stroke="#e5e7eb"/>
<text x="459.42857142857144" y="146" class="small" text-anchor="start">60</text>
<rect x="588.5714285714286" y="124" width="137.14285714285714" height="34" fill="#ffffff" stroke="#e5e7eb"/>
<text x="596.5714285714286" y="146" class="small" text-anchor="start">0</text>
<rect x="725.7142857142857" y="124" width="137.14285714285714" height="34" fill="#ffffff" stroke="#e5e7eb"/>
<text x="733.7142857142857" y="146" class="small" text-anchor="start">1</text>
<rect x="862.8571428571429" y="124" width="137.14285714285714" height="34" fill="#ffffff" stroke="#e5e7eb"/>
<text x="870.8571428571429" y="146" class="small" text-anchor="start">0.957</text>
<rect x="40.0" y="158" width="137.14285714285714" height="34" fill="#f9fafb" stroke="#e5e7eb"/>
<text x="48.0" y="180" class="small" text-anchor="start">55</text>
<rect x="177.14285714285714" y="158" width="137.14285714285714" height="34" fill="#f9fafb" stroke="#e5e7eb"/>
<text x="185.14285714285714" y="180" class="small" text-anchor="start">Masters</text>
<rect x="314.2857142857143" y="158" width="137.14285714285714" height="34" fill="#f9fafb" stroke="#e5e7eb"/>
<text x="322.2857142857143" y="180" class="small" text-anchor="start">Exec-managerial</text>
<rect x="451.42857142857144" y="158" width="137.14285714285714" height="34" fill="#f9fafb" stroke="#e5e7eb"/>
<text x="459.42857142857144" y="180" class="small" text-anchor="start">60</text>
<rect x="588.5714285714286" y="158" width="137.14285714285714" height="34" fill="#f9fafb" stroke="#e5e7eb"/>
<text x="596.5714285714286" y="180" class="small" text-anchor="start">0</text>
<rect x="725.7142857142857" y="158" width="137.14285714285714" height="34" fill="#f9fafb" stroke="#e5e7eb"/>
<text x="733.7142857142857" y="180" class="small" text-anchor="start">1</text>
<rect x="862.8571428571429" y="158" width="137.14285714285714" height="34" fill="#f9fafb" stroke="#e5e7eb"/>
<text x="870.8571428571429" y="180" class="small" text-anchor="start">0.947</text>
<rect x="40.0" y="192" width="137.14285714285714" height="34" fill="#ffffff" stroke="#e5e7eb"/>
<text x="48.0" y="214" class="small" text-anchor="start">46</text>
<rect x="177.14285714285714" y="192" width="137.14285714285714" height="34" fill="#ffffff" stroke="#e5e7eb"/>
<text x="185.14285714285714" y="214" class="small" text-anchor="start">Doctorate</text>
<rect x="314.2857142857143" y="192" width="137.14285714285714" height="34" fill="#ffffff" stroke="#e5e7eb"/>
<text x="322.2857142857143" y="214" class="small" text-anchor="start">Prof-specialty</text>
<rect x="451.42857142857144" y="192" width="137.14285714285714" height="34" fill="#ffffff" stroke="#e5e7eb"/>
<text x="459.42857142857144" y="214" class="small" text-anchor="start">70</text>
<rect x="588.5714285714286" y="192" width="137.14285714285714" height="34" fill="#ffffff" stroke="#e5e7eb"/>
<text x="596.5714285714286" y="214" class="small" text-anchor="start">0</text>
<rect x="725.7142857142857" y="192" width="137.14285714285714" height="34" fill="#ffffff" stroke="#e5e7eb"/>
<text x="733.7142857142857" y="214" class="small" text-anchor="start">1</text>
<rect x="862.8571428571429" y="192" width="137.14285714285714" height="34" fill="#ffffff" stroke="#e5e7eb"/>
<text x="870.8571428571429" y="214" class="small" text-anchor="start">0.946</text>
<rect x="40.0" y="226" width="137.14285714285714" height="34" fill="#f9fafb" stroke="#e5e7eb"/>
<text x="48.0" y="248" class="small" text-anchor="start">40</text>
<rect x="177.14285714285714" y="226" width="137.14285714285714" height="34" fill="#f9fafb" stroke="#e5e7eb"/>
<text x="185.14285714285714" y="248" class="small" text-anchor="start">Doctorate</text>
<rect x="314.2857142857143" y="226" width="137.14285714285714" height="34" fill="#f9fafb" stroke="#e5e7eb"/>
<text x="322.2857142857143" y="248" class="small" text-anchor="start">Prof-specialty</text>
<rect x="451.42857142857144" y="226" width="137.14285714285714" height="34" fill="#f9fafb" stroke="#e5e7eb"/>
<text x="459.42857142857144" y="248" class="small" text-anchor="start">45</text>
<rect x="588.5714285714286" y="226" width="137.14285714285714" height="34" fill="#f9fafb" stroke="#e5e7eb"/>
<text x="596.5714285714286" y="248" class="small" text-anchor="start">0</text>
<rect x="725.7142857142857" y="226" width="137.14285714285714" height="34" fill="#f9fafb" stroke="#e5e7eb"/>
<text x="733.7142857142857" y="248" class="small" text-anchor="start">1</text>
<rect x="862.8571428571429" y="226" width="137.14285714285714" height="34" fill="#f9fafb" stroke="#e5e7eb"/>
<text x="870.8571428571429" y="248" class="small" text-anchor="start">0.939</text>
<rect x="40.0" y="260" width="137.14285714285714" height="34" fill="#ffffff" stroke="#e5e7eb"/>
<text x="48.0" y="282" class="small" text-anchor="start">37</text>
<rect x="177.14285714285714" y="260" width="137.14285714285714" height="34" fill="#ffffff" stroke="#e5e7eb"/>
<text x="185.14285714285714" y="282" class="small" text-anchor="start">Doctorate</text>
<rect x="314.2857142857143" y="260" width="137.14285714285714" height="34" fill="#ffffff" stroke="#e5e7eb"/>
<text x="322.2857142857143" y="282" class="small" text-anchor="start">Prof-specialty</text>
<rect x="451.42857142857144" y="260" width="137.14285714285714" height="34" fill="#ffffff" stroke="#e5e7eb"/>
<text x="459.42857142857144" y="282" class="small" text-anchor="start">45</text>
<rect x="588.5714285714286" y="260" width="137.14285714285714" height="34" fill="#ffffff" stroke="#e5e7eb"/>
<text x="596.5714285714286" y="282" class="small" text-anchor="start">0</text>
<rect x="725.7142857142857" y="260" width="137.14285714285714" height="34" fill="#ffffff" stroke="#e5e7eb"/>
<text x="733.7142857142857" y="282" class="small" text-anchor="start">1</text>
<rect x="862.8571428571429" y="260" width="137.14285714285714" height="34" fill="#ffffff" stroke="#e5e7eb"/>
<text x="870.8571428571429" y="282" class="small" text-anchor="start">0.936</text>
<rect x="40.0" y="294" width="137.14285714285714" height="34" fill="#f9fafb" stroke="#e5e7eb"/>
<text x="48.0" y="316" class="small" text-anchor="start">45</text>
<rect x="177.14285714285714" y="294" width="137.14285714285714" height="34" fill="#f9fafb" stroke="#e5e7eb"/>
<text x="185.14285714285714" y="316" class="small" text-anchor="start">Bachelors</text>
<rect x="314.2857142857143" y="294" width="137.14285714285714" height="34" fill="#f9fafb" stroke="#e5e7eb"/>
<text x="322.2857142857143" y="316" class="small" text-anchor="start">Exec-managerial</text>
<rect x="451.42857142857144" y="294" width="137.14285714285714" height="34" fill="#f9fafb" stroke="#e5e7eb"/>
<text x="459.42857142857144" y="316" class="small" text-anchor="start">48</text>
<rect x="588.5714285714286" y="294" width="137.14285714285714" height="34" fill="#f9fafb" stroke="#e5e7eb"/>
<text x="596.5714285714286" y="316" class="small" text-anchor="start">0</text>
<rect x="725.7142857142857" y="294" width="137.14285714285714" height="34" fill="#f9fafb" stroke="#e5e7eb"/>
<text x="733.7142857142857" y="316" class="small" text-anchor="start">1</text>
<rect x="862.8571428571429" y="294" width="137.14285714285714" height="34" fill="#f9fafb" stroke="#e5e7eb"/>
<text x="870.8571428571429" y="316" class="small" text-anchor="start">0.931</text>
<rect x="40.0" y="328" width="137.14285714285714" height="34" fill="#ffffff" stroke="#e5e7eb"/>
<text x="48.0" y="350" class="small" text-anchor="start">40</text>
<rect x="177.14285714285714" y="328" width="137.14285714285714" height="34" fill="#ffffff" stroke="#e5e7eb"/>
<text x="185.14285714285714" y="350" class="small" text-anchor="start">Bachelors</text>
<rect x="314.2857142857143" y="328" width="137.14285714285714" height="34" fill="#ffffff" stroke="#e5e7eb"/>
<text x="322.2857142857143" y="350" class="small" text-anchor="start">Exec-managerial</text>
<rect x="451.42857142857144" y="328" width="137.14285714285714" height="34" fill="#ffffff" stroke="#e5e7eb"/>
<text x="459.42857142857144" y="350" class="small" text-anchor="start">60</text>
<rect x="588.5714285714286" y="328" width="137.14285714285714" height="34" fill="#ffffff" stroke="#e5e7eb"/>
<text x="596.5714285714286" y="350" class="small" text-anchor="start">0</text>
<rect x="725.7142857142857" y="328" width="137.14285714285714" height="34" fill="#ffffff" stroke="#e5e7eb"/>
<text x="733.7142857142857" y="350" class="small" text-anchor="start">1</text>
<rect x="862.8571428571429" y="328" width="137.14285714285714" height="34" fill="#ffffff" stroke="#e5e7eb"/>
<text x="870.8571428571429" y="350" class="small" text-anchor="start">0.93</text>
<rect x="40.0" y="362" width="137.14285714285714" height="34" fill="#f9fafb" stroke="#e5e7eb"/>
<text x="48.0" y="384" class="small" text-anchor="start">47</text>
<rect x="177.14285714285714" y="362" width="137.14285714285714" height="34" fill="#f9fafb" stroke="#e5e7eb"/>
<text x="185.14285714285714" y="384" class="small" text-anchor="start">Masters</text>
<rect x="314.2857142857143" y="362" width="137.14285714285714" height="34" fill="#f9fafb" stroke="#e5e7eb"/>
<text x="322.2857142857143" y="384" class="small" text-anchor="start">Exec-managerial</text>
<rect x="451.42857142857144" y="362" width="137.14285714285714" height="34" fill="#f9fafb" stroke="#e5e7eb"/>
<text x="459.42857142857144" y="384" class="small" text-anchor="start">40</text>
<rect x="588.5714285714286" y="362" width="137.14285714285714" height="34" fill="#f9fafb" stroke="#e5e7eb"/>
<text x="596.5714285714286" y="384" class="small" text-anchor="start">0</text>
<rect x="725.7142857142857" y="362" width="137.14285714285714" height="34" fill="#f9fafb" stroke="#e5e7eb"/>
<text x="733.7142857142857" y="384" class="small" text-anchor="start">1</text>
<rect x="862.8571428571429" y="362" width="137.14285714285714" height="34" fill="#f9fafb" stroke="#e5e7eb"/>
<text x="870.8571428571429" y="384" class="small" text-anchor="start">0.927</text>
</svg>