<svg xmlns="http://www.w3.org/2000/svg" width="980" height="620" viewBox="0 0 980 620">
<rect width="100%" height="100%" fill="white" />
<style>
text { font-family: Arial, sans-serif; fill: #111827; }
.small { font-size: 12px; }
.axis { font-size: 12px; fill: #374151; }
.title { font-size: 20px; font-weight: bold; }
.subtitle { font-size: 13px; fill: #4b5563; }
.legend { font-size: 12px; }
</style>
<text x="90" y="35" class="title" text-anchor="start">Covertype class distribution</text>
<text x="90" y="58" class="subtitle" text-anchor="start">Seven-class target balance across the full dataset.</text>
<line x1="90" y1="540" x2="940" y2="540" stroke="#111827"/>
<line x1="90" y1="80" x2="90" y2="540" stroke="#111827"/>
<text x="515.0" y="600" class="axis" text-anchor="middle">class</text>
<text x="24" y="310.0" class="axis" text-anchor="middle" transform="rotate(-90 24 310.0)">count</text>
<line x1="90" y1="540.0" x2="940" y2="540.0" stroke="#e5e7eb"/>
<text x="80" y="544.0" class="axis" text-anchor="end">0.000</text>
<line x1="90" y1="425.0" x2="940" y2="425.0" stroke="#e5e7eb"/>
<text x="80" y="429.0" class="axis" text-anchor="end">81449.037</text>
<line x1="90" y1="310.0" x2="940" y2="310.0" stroke="#e5e7eb"/>
<text x="80" y="314.0" class="axis" text-anchor="end">162898.075</text>
<line x1="90" y1="195.0" x2="940" y2="195.0" stroke="#e5e7eb"/>
<text x="80" y="199.0" class="axis" text-anchor="end">244347.112</text>
<line x1="90" y1="80.0" x2="940" y2="80.0" stroke="#e5e7eb"/>
<text x="80" y="84.0" class="axis" text-anchor="end">325796.150</text>
<rect x="108.21428571428572" y="240.89763184739905" width="85.0" height="299.10236815260095" fill="#2563eb" opacity="0.85"/>
<text x="150.71428571428572" y="232.89763184739905" class="small" text-anchor="middle">211840</text>
<text x="150.71428571428572" y="568" class="axis" text-anchor="middle" transform="rotate(-25 150.71428571428572 568)">0</text>
<rect x="229.64285714285717" y="139.99999999999994" width="85.0" height="400.00000000000006" fill="#2563eb" opacity="0.85"/>
<text x="272.14285714285717" y="131.99999999999994" class="small" text-anchor="middle">283301</text>
<text x="272.14285714285717" y="568" class="axis" text-anchor="middle" transform="rotate(-25 272.14285714285717 568)">1</text>
<rect x="351.0714285714286" y="489.5180038192594" width="85.0" height="50.48199618074062" fill="#2563eb" opacity="0.85"/>
<text x="393.5714285714286" y="481.5180038192594" class="small" text-anchor="middle">35754</text>
<text x="393.5714285714286" y="568" class="axis" text-anchor="middle" transform="rotate(-25 393.5714285714286 568)">2</text>
<rect x="472.5" y="536.1214397407704" width="85.0" height="3.87856025922963" fill="#2563eb" opacity="0.85"/>
<text x="515.0" y="528.1214397407704" class="small" text-anchor="middle">2747</text>
<text x="515.0" y="568" class="axis" text-anchor="middle" transform="rotate(-25 515.0 568)">3</text>
<rect x="593.9285714285714" y="526.5965880812281" width="85.0" height="13.403411918771894" fill="#2563eb" opacity="0.85"/>
<text x="636.4285714285714" y="518.5965880812281" class="small" text-anchor="middle">9493</text>
<text x="636.4285714285714" y="568" class="axis" text-anchor="middle" transform="rotate(-25 636.4285714285714 568)">4</text>
<rect x="715.3571428571428" y="515.4790840837131" width="85.0" height="24.520915916286867" fill="#2563eb" opacity="0.85"/>
<text x="757.8571428571428" y="507.47908408371313" class="small" text-anchor="middle">17367</text>
<text x="757.8571428571428" y="568" class="axis" text-anchor="middle" transform="rotate(-25 757.8571428571428 568)">5</text>
<rect x="836.7857142857142" y="511.0414011951952" width="85.0" height="28.958598804804808" fill="#2563eb" opacity="0.85"/>
<text x="879.2857142857142" y="503.0414011951952" class="small" text-anchor="middle">20510</text>
<text x="879.2857142857142" y="568" class="axis" text-anchor="middle" transform="rotate(-25 879.2857142857142 568)">6</text>
</svg>