<svg xmlns="http://www.w3.org/2000/svg" width="980" height="620" viewBox="0 0 980 620">
<rect width="100%" height="100%" fill="white" />
<style>
text { font-family: Arial, sans-serif; fill: #111827; }
.small { font-size: 12px; }
.axis { font-size: 12px; fill: #374151; }
.title { font-size: 20px; font-weight: bold; }
.subtitle { font-size: 13px; fill: #4b5563; }
.legend { font-size: 12px; }
</style>
<text x="90" y="35" class="title" text-anchor="start">Age histogram</text>
<text x="90" y="58" class="subtitle" text-anchor="start">Representative numeric feature distribution.</text>
<line x1="90" y1="540" x2="940" y2="540" stroke="#111827"/>
<line x1="90" y1="80" x2="90" y2="540" stroke="#111827"/>
<text x="515.0" y="600" class="axis" text-anchor="middle">age bucket</text>
<text x="24" y="310.0" class="axis" text-anchor="middle" transform="rotate(-90 24 310.0)">count</text>
<line x1="90" y1="540.0" x2="940" y2="540.0" stroke="#e5e7eb"/>
<text x="80" y="544.0" class="axis" text-anchor="end">0.000</text>
<line x1="90" y1="425.0" x2="940" y2="425.0" stroke="#e5e7eb"/>
<text x="80" y="429.0" class="axis" text-anchor="end">1499.025</text>
<line x1="90" y1="310.0" x2="940" y2="310.0" stroke="#e5e7eb"/>
<text x="80" y="314.0" class="axis" text-anchor="end">2998.050</text>
<line x1="90" y1="195.0" x2="940" y2="195.0" stroke="#e5e7eb"/>
<text x="80" y="199.0" class="axis" text-anchor="end">4497.075</text>
<line x1="90" y1="80.0" x2="940" y2="80.0" stroke="#e5e7eb"/>
<text x="80" y="84.0" class="axis" text-anchor="end">5996.100</text>
<rect x="100.625" y="173.90870732642878" width="49.58333333333333" height="366.0912926735712" fill="#2563eb" opacity="0.85"/>
<text x="125.41666666666666" y="165.90870732642878" class="small" text-anchor="middle">4772</text>
<text x="125.41666666666666" y="568" class="axis" text-anchor="middle" transform="rotate(-25 125.41666666666666 568)">17-23</text>
<rect x="171.45833333333331" y="161.09704641350208" width="49.58333333333333" height="378.9029535864979" fill="#2563eb" opacity="0.85"/>
<text x="196.24999999999997" y="153.09704641350208" class="small" text-anchor="middle">4939</text>
<text x="196.24999999999997" y="568" class="axis" text-anchor="middle" transform="rotate(-25 196.24999999999997 568)">23-29</text>
<rect x="242.29166666666666" y="139.99999999999994" width="49.58333333333333" height="400.00000000000006" fill="#2563eb" opacity="0.85"/>
<text x="267.0833333333333" y="131.99999999999994" class="small" text-anchor="middle">5214</text>
<text x="267.0833333333333" y="568" class="axis" text-anchor="middle" transform="rotate(-25 267.0833333333333 568)">29-35</text>
<rect x="313.125" y="156.3406214039125" width="49.58333333333333" height="383.6593785960875" fill="#2563eb" opacity="0.85"/>
<text x="337.9166666666667" y="148.3406214039125" class="small" text-anchor="middle">5001</text>
<text x="337.9166666666667" y="568" class="axis" text-anchor="middle" transform="rotate(-25 337.9166666666667 568)">35-41</text>
<rect x="383.9583333333333" y="198.38128116609124" width="49.58333333333333" height="341.61871883390876" fill="#2563eb" opacity="0.85"/>
<text x="408.75" y="190.38128116609124" class="small" text-anchor="middle">4453</text>
<text x="408.75" y="568" class="axis" text-anchor="middle" transform="rotate(-25 408.75 568)">41-47</text>
<rect x="454.79166666666663" y="289.9808208668968" width="49.58333333333333" height="250.0191791331032" fill="#2563eb" opacity="0.85"/>
<text x="479.5833333333333" y="281.9808208668968" class="small" text-anchor="middle">3259</text>
<text x="479.5833333333333" y="568" class="axis" text-anchor="middle" transform="rotate(-25 479.5833333333333 568)">47-53</text>
<rect x="525.625" y="365.16302263137703" width="49.58333333333333" height="174.83697736862297" fill="#2563eb" opacity="0.85"/>
<text x="550.4166666666666" y="357.16302263137703" class="small" text-anchor="middle">2279</text>
<text x="550.4166666666666" y="568" class="axis" text-anchor="middle" transform="rotate(-25 550.4166666666666 568)">53-59</text>
<rect x="596.4583333333333" y="425.99923283467587" width="49.58333333333333" height="114.00076716532413" fill="#2563eb" opacity="0.85"/>
<text x="621.2499999999999" y="417.99923283467587" class="small" text-anchor="middle">1486</text>
<text x="621.2499999999999" y="568" class="axis" text-anchor="middle" transform="rotate(-25 621.2499999999999 568)">59-65</text>
<rect x="667.2916666666666" y="487.06559263521285" width="49.58333333333333" height="52.93440736478715" fill="#2563eb" opacity="0.85"/>
<text x="692.0833333333333" y="479.06559263521285" class="small" text-anchor="middle">690</text>
<text x="692.0833333333333" y="568" class="axis" text-anchor="middle" transform="rotate(-25 692.0833333333333 568)">65-71</text>
<rect x="738.125" y="516.831607211354" width="49.58333333333333" height="23.168392788645974" fill="#2563eb" opacity="0.85"/>
<text x="762.9166666666666" y="508.831607211354" class="small" text-anchor="middle">302</text>
<text x="762.9166666666666" y="568" class="axis" text-anchor="middle" transform="rotate(-25 762.9166666666666 568)">71-77</text>
<rect x="808.9583333333333" y="531.9447640966629" width="49.58333333333333" height="8.05523590333712" fill="#2563eb" opacity="0.85"/>
<text x="833.7499999999999" y="523.9447640966629" class="small" text-anchor="middle">105</text>
<text x="833.7499999999999" y="568" class="axis" text-anchor="middle" transform="rotate(-25 833.7499999999999 568)">77-83</text>
<rect x="879.7916666666666" y="535.3202915228231" width="49.58333333333333" height="4.67970847717686" fill="#2563eb" opacity="0.85"/>
<text x="904.5833333333333" y="527.3202915228231" class="small" text-anchor="middle">61</text>
<text x="904.5833333333333" y="568" class="axis" text-anchor="middle" transform="rotate(-25 904.5833333333333 568)">83-90</text>
</svg>