<svg xmlns="http://www.w3.org/2000/svg" width="980" height="620" viewBox="0 0 980 620">
<rect width="100%" height="100%" fill="white" />
<style>
text { font-family: Arial, sans-serif; fill: #111827; }
.small { font-size: 12px; }
.axis { font-size: 12px; fill: #374151; }
.title { font-size: 20px; font-weight: bold; }
.subtitle { font-size: 13px; fill: #4b5563; }
.legend { font-size: 12px; }
</style>
<text x="90" y="35" class="title" text-anchor="start">Slice metric by class</text>
<text x="90" y="58" class="subtitle" text-anchor="start">Per-class recall for hist_gbdt.</text>
<line x1="90" y1="540" x2="940" y2="540" stroke="#111827"/>
<line x1="90" y1="80" x2="90" y2="540" stroke="#111827"/>
<text x="515.0" y="600" class="axis" text-anchor="middle">class</text>
<text x="24" y="310.0" class="axis" text-anchor="middle" transform="rotate(-90 24 310.0)">recall</text>
<line x1="90" y1="540.0" x2="940" y2="540.0" stroke="#e5e7eb"/>
<text x="80" y="544.0" class="axis" text-anchor="end">0.000</text>
<line x1="90" y1="425.0" x2="940" y2="425.0" stroke="#e5e7eb"/>
<text x="80" y="429.0" class="axis" text-anchor="end">0.257</text>
<line x1="90" y1="310.0" x2="940" y2="310.0" stroke="#e5e7eb"/>
<text x="80" y="314.0" class="axis" text-anchor="end">0.515</text>
<line x1="90" y1="195.0" x2="940" y2="195.0" stroke="#e5e7eb"/>
<text x="80" y="199.0" class="axis" text-anchor="end">0.772</text>
<line x1="90" y1="80.0" x2="940" y2="80.0" stroke="#e5e7eb"/>
<text x="80" y="84.0" class="axis" text-anchor="end">1.029</text>
<rect x="108.21428571428572" y="182.88986664199905" width="85.0" height="357.11013335800095" fill="#2563eb" opacity="0.85"/>
<text x="150.71428571428572" y="174.88986664199905" class="small" text-anchor="middle">0.799</text>
<text x="150.71428571428572" y="568" class="axis" text-anchor="middle" transform="rotate(-25 150.71428571428572 568)">0</text>
<rect x="229.64285714285717" y="149.24097788291198" width="85.0" height="390.759022117088" fill="#2563eb" opacity="0.85"/>
<text x="272.14285714285717" y="141.24097788291198" class="small" text-anchor="middle">0.875</text>
<text x="272.14285714285717" y="568" class="axis" text-anchor="middle" transform="rotate(-25 272.14285714285717 568)">1</text>
<rect x="351.0714285714286" y="139.9999999999999" width="85.0" height="400.0000000000001" fill="#2563eb" opacity="0.85"/>
<text x="393.5714285714286" y="131.9999999999999" class="small" text-anchor="middle">0.895</text>
<text x="393.5714285714286" y="568" class="axis" text-anchor="middle" transform="rotate(-25 393.5714285714286 568)">2</text>
<rect x="472.5" y="195.12160694677277" width="85.0" height="344.8783930532272" fill="#2563eb" opacity="0.85"/>
<text x="515.0" y="187.12160694677277" class="small" text-anchor="middle">0.772</text>
<text x="515.0" y="568" class="axis" text-anchor="middle" transform="rotate(-25 515.0 568)">3</text>
<rect x="593.9285714285714" y="299.9578388397548" width="85.0" height="240.0421611602452" fill="#2563eb" opacity="0.85"/>
<text x="636.4285714285714" y="291.9578388397548" class="small" text-anchor="middle">0.537</text>
<text x="636.4285714285714" y="568" class="axis" text-anchor="middle" transform="rotate(-25 636.4285714285714 568)">4</text>
<rect x="715.3571428571428" y="228.33840998416434" width="85.0" height="311.66159001583566" fill="#2563eb" opacity="0.85"/>
<text x="757.8571428571428" y="220.33840998416434" class="small" text-anchor="middle">0.698</text>
<text x="757.8571428571428" y="568" class="axis" text-anchor="middle" transform="rotate(-25 757.8571428571428 568)">5</text>
<rect x="836.7857142857142" y="155.76366964498038" width="85.0" height="384.2363303550196" fill="#2563eb" opacity="0.85"/>
<text x="879.2857142857142" y="147.76366964498038" class="small" text-anchor="middle">0.860</text>
<text x="879.2857142857142" y="568" class="axis" text-anchor="middle" transform="rotate(-25 879.2857142857142 568)">6</text>
</svg>