<svg xmlns="http://www.w3.org/2000/svg" width="980" height="620" viewBox="0 0 980 620">
<rect width="100%" height="100%" fill="white" />
<style>
text { font-family: Arial, sans-serif; fill: #111827; }
.small { font-size: 12px; }
.axis { font-size: 12px; fill: #374151; }
.title { font-size: 20px; font-weight: bold; }
.subtitle { font-size: 13px; fill: #4b5563; }
.legend { font-size: 12px; }
</style>
<text x="90" y="35" class="title" text-anchor="start">Calibration curve</text>
<text x="90" y="58" class="subtitle" text-anchor="start">Probability calibration on the test split.</text>
<line x1="90" y1="540" x2="940" y2="540" stroke="#111827"/>
<line x1="90" y1="80" x2="90" y2="540" stroke="#111827"/>
<line x1="90" y1="540.0" x2="940" y2="540.0" stroke="#e5e7eb"/>
<text x="80" y="544.0" class="axis" text-anchor="end">0.000</text>
<line x1="90" y1="425.0" x2="940" y2="425.0" stroke="#e5e7eb"/>
<text x="80" y="429.0" class="axis" text-anchor="end">0.255</text>
<line x1="90" y1="310.0" x2="940" y2="310.0" stroke="#e5e7eb"/>
<text x="80" y="314.0" class="axis" text-anchor="end">0.510</text>
<line x1="90" y1="195.0" x2="940" y2="195.0" stroke="#e5e7eb"/>
<text x="80" y="199.0" class="axis" text-anchor="end">0.765</text>
<line x1="90" y1="80.0" x2="940" y2="80.0" stroke="#e5e7eb"/>
<text x="80" y="84.0" class="axis" text-anchor="end">1.020</text>
<line x1="90.0" y1="80" x2="90.0" y2="540" stroke="#f3f4f6"/>
<text x="90.0" y="562" class="axis" text-anchor="middle">-0.02</text>
<line x1="260.0" y1="80" x2="260.0" y2="540" stroke="#f3f4f6"/>
<text x="260.0" y="562" class="axis" text-anchor="middle">0.19</text>
<line x1="430.0" y1="80" x2="430.0" y2="540" stroke="#f3f4f6"/>
<text x="430.0" y="562" class="axis" text-anchor="middle">0.40</text>
<line x1="600.0" y1="80" x2="600.0" y2="540" stroke="#f3f4f6"/>
<text x="600.0" y="562" class="axis" text-anchor="middle">0.60</text>
<line x1="770.0" y1="80" x2="770.0" y2="540" stroke="#f3f4f6"/>
<text x="770.0" y="562" class="axis" text-anchor="middle">0.81</text>
<line x1="940.0" y1="80" x2="940.0" y2="540" stroke="#f3f4f6"/>
<text x="940.0" y="562" class="axis" text-anchor="middle">1.02</text>
<text x="515.0" y="600" class="axis" text-anchor="middle">mean predicted probability</text>
<text x="24" y="310.0" class="axis" text-anchor="middle" transform="rotate(-90 24 310.0)">fraction of positives</text>
<polyline points="107.79887428758938,540.0 115.22380562028725,537.2275795564127 132.51730977047401,528.0107462207787 166.4910578217093,527.9861780777885 229.6929409075963,515.0992421508481 325.78147658788555,477.1584699453552 455.4817210685362,418.9376406300225 584.6580620638224,370.30594650948314 724.3791667286742,255.36483445837348 855.9940936420484,144.35462528569707" fill="none" stroke="#059669" stroke-width="3"/>
<circle cx="107.79887428758938" cy="540.0" r="3.5" fill="#059669"/>
<circle cx="115.22380562028725" cy="537.2275795564127" r="3.5" fill="#059669"/>
<circle cx="132.51730977047401" cy="528.0107462207787" r="3.5" fill="#059669"/>
<circle cx="166.4910578217093" cy="527.9861780777885" r="3.5" fill="#059669"/>
<circle cx="229.6929409075963" cy="515.0992421508481" r="3.5" fill="#059669"/>
<circle cx="325.78147658788555" cy="477.1584699453552" r="3.5" fill="#059669"/>
<circle cx="455.4817210685362" cy="418.9376406300225" r="3.5" fill="#059669"/>
<circle cx="584.6580620638224" cy="370.30594650948314" r="3.5" fill="#059669"/>
<circle cx="724.3791667286742" cy="255.36483445837348" r="3.5" fill="#059669"/>
<circle cx="855.9940936420484" cy="144.35462528569707" r="3.5" fill="#059669"/>
<line x1="760" y1="28" x2="780" y2="28" stroke="#059669" stroke-width="3"/>
<text x="788" y="32" class="legend" text-anchor="start">random_forest</text>
<polyline points="106.34615384615384,540.0 923.6538461538461,89.0196078431373" fill="none" stroke="#9ca3af" stroke-width="3"/>
<circle cx="106.34615384615384" cy="540.0" r="3.5" fill="#9ca3af"/>
<circle cx="923.6538461538461" cy="89.0196078431373" r="3.5" fill="#9ca3af"/>
<line x1="760" y1="48" x2="780" y2="48" stroke="#9ca3af" stroke-width="3"/>
<text x="788" y="52" class="legend" text-anchor="start">ideal</text>
</svg>