<svg xmlns="http://www.w3.org/2000/svg" width="980" height="620" viewBox="0 0 980 620">
<rect width="100%" height="100%" fill="white" />
<style>
text { font-family: Arial, sans-serif; fill: #111827; }
.small { font-size: 12px; }
.axis { font-size: 12px; fill: #374151; }
.title { font-size: 20px; font-weight: bold; }
.subtitle { font-size: 13px; fill: #4b5563; }
.legend { font-size: 12px; }
</style>
<text x="90" y="35" class="title" text-anchor="start">Residual histogram</text>
<text x="90" y="58" class="subtitle" text-anchor="start">Prediction residual distribution on the test split.</text>
<line x1="90" y1="540" x2="940" y2="540" stroke="#111827"/>
<line x1="90" y1="80" x2="90" y2="540" stroke="#111827"/>
<text x="515.0" y="600" class="axis" text-anchor="middle">residual bucket</text>
<text x="24" y="310.0" class="axis" text-anchor="middle" transform="rotate(-90 24 310.0)">count</text>
<line x1="90" y1="540.0" x2="940" y2="540.0" stroke="#e5e7eb"/>
<text x="80" y="544.0" class="axis" text-anchor="end">0.000</text>
<line x1="90" y1="425.0" x2="940" y2="425.0" stroke="#e5e7eb"/>
<text x="80" y="429.0" class="axis" text-anchor="end">434.700</text>
<line x1="90" y1="310.0" x2="940" y2="310.0" stroke="#e5e7eb"/>
<text x="80" y="314.0" class="axis" text-anchor="end">869.400</text>
<line x1="90" y1="195.0" x2="940" y2="195.0" stroke="#e5e7eb"/>
<text x="80" y="199.0" class="axis" text-anchor="end">1304.100</text>
<line x1="90" y1="80.0" x2="940" y2="80.0" stroke="#e5e7eb"/>
<text x="80" y="84.0" class="axis" text-anchor="end">1738.800</text>
<rect x="99.10714285714286" y="538.941798941799" width="42.5" height="1.058201058201007" fill="#2563eb" opacity="0.85"/>
<text x="120.35714285714286" y="530.941798941799" class="small" text-anchor="middle">4</text>
<text x="120.35714285714286" y="568" class="axis" text-anchor="middle" transform="rotate(-25 120.35714285714286 568)">-3.0</text>
<rect x="159.82142857142858" y="538.941798941799" width="42.5" height="1.058201058201007" fill="#2563eb" opacity="0.85"/>
<text x="181.07142857142858" y="530.941798941799" class="small" text-anchor="middle">4</text>
<text x="181.07142857142858" y="568" class="axis" text-anchor="middle" transform="rotate(-25 181.07142857142858 568)">-2.6</text>
<rect x="220.5357142857143" y="535.5026455026455" width="42.5" height="4.497354497354536" fill="#2563eb" opacity="0.85"/>
<text x="241.7857142857143" y="527.5026455026455" class="small" text-anchor="middle">17</text>
<text x="241.7857142857143" y="568" class="axis" text-anchor="middle" transform="rotate(-25 241.7857142857143 568)">-2.1</text>
<rect x="281.24999999999994" y="531.7989417989418" width="42.5" height="8.201058201058231" fill="#2563eb" opacity="0.85"/>
<text x="302.49999999999994" y="523.7989417989418" class="small" text-anchor="middle">31</text>
<text x="302.49999999999994" y="568" class="axis" text-anchor="middle" transform="rotate(-25 302.49999999999994 568)">-1.7</text>
<rect x="341.9642857142857" y="519.3650793650794" width="42.5" height="20.634920634920604" fill="#2563eb" opacity="0.85"/>
<text x="363.2142857142857" y="511.3650793650794" class="small" text-anchor="middle">78</text>
<text x="363.2142857142857" y="568" class="axis" text-anchor="middle" transform="rotate(-25 363.2142857142857 568)">-1.3</text>
<rect x="402.6785714285714" y="491.58730158730157" width="42.5" height="48.41269841269843" fill="#2563eb" opacity="0.85"/>
<text x="423.9285714285714" y="483.58730158730157" class="small" text-anchor="middle">183</text>
<text x="423.9285714285714" y="568" class="axis" text-anchor="middle" transform="rotate(-25 423.9285714285714 568)">-0.9</text>
<rect x="463.3928571428571" y="336.2962962962963" width="42.5" height="203.7037037037037" fill="#2563eb" opacity="0.85"/>
<text x="484.6428571428571" y="328.2962962962963" class="small" text-anchor="middle">770</text>
<text x="484.6428571428571" y="568" class="axis" text-anchor="middle" transform="rotate(-25 484.6428571428571 568)">-0.5</text>
<rect x="524.1071428571429" y="140.0" width="42.5" height="400.0" fill="#2563eb" opacity="0.85"/>
<text x="545.3571428571429" y="132.0" class="small" text-anchor="middle">1512</text>
<text x="545.3571428571429" y="568" class="axis" text-anchor="middle" transform="rotate(-25 545.3571428571429 568)">-0.1</text>
<rect x="584.8214285714287" y="434.70899470899474" width="42.5" height="105.29100529100526" fill="#2563eb" opacity="0.85"/>
<text x="606.0714285714287" y="426.70899470899474" class="small" text-anchor="middle">398</text>
<text x="606.0714285714287" y="568" class="axis" text-anchor="middle" transform="rotate(-25 606.0714285714287 568)">0.3</text>
<rect x="645.5357142857143" y="520.1587301587301" width="42.5" height="19.841269841269877" fill="#2563eb" opacity="0.85"/>
<text x="666.7857142857143" y="512.1587301587301" class="small" text-anchor="middle">75</text>
<text x="666.7857142857143" y="568" class="axis" text-anchor="middle" transform="rotate(-25 666.7857142857143 568)">0.8</text>
<rect x="706.25" y="537.0899470899471" width="42.5" height="2.9100529100528547" fill="#2563eb" opacity="0.85"/>
<text x="727.5" y="529.0899470899471" class="small" text-anchor="middle">11</text>
<text x="727.5" y="568" class="axis" text-anchor="middle" transform="rotate(-25 727.5 568)">1.2</text>
<rect x="766.9642857142858" y="537.8835978835979" width="42.5" height="2.116402116402128" fill="#2563eb" opacity="0.85"/>
<text x="788.2142857142858" y="529.8835978835979" class="small" text-anchor="middle">8</text>
<text x="788.2142857142858" y="568" class="axis" text-anchor="middle" transform="rotate(-25 788.2142857142858 568)">1.6</text>
<rect x="827.6785714285714" y="539.4708994708994" width="42.5" height="0.5291005291005604" fill="#2563eb" opacity="0.85"/>
<text x="848.9285714285714" y="531.4708994708994" class="small" text-anchor="middle">2</text>
<text x="848.9285714285714" y="568" class="axis" text-anchor="middle" transform="rotate(-25 848.9285714285714 568)">2.0</text>
<rect x="888.3928571428572" y="539.2063492063492" width="42.5" height="0.7936507936508406" fill="#2563eb" opacity="0.85"/>
<text x="909.6428571428572" y="531.2063492063492" class="small" text-anchor="middle">3</text>
<text x="909.6428571428572" y="568" class="axis" text-anchor="middle" transform="rotate(-25 909.6428571428572 568)">2.4</text>
</svg>