<svg xmlns="http://www.w3.org/2000/svg" width="980" height="620" viewBox="0 0 980 620">
<rect width="100%" height="100%" fill="white" />
<style>
text { font-family: Arial, sans-serif; fill: #111827; }
.small { font-size: 12px; }
.axis { font-size: 12px; fill: #374151; }
.title { font-size: 20px; font-weight: bold; }
.subtitle { font-size: 13px; fill: #4b5563; }
.legend { font-size: 12px; }
</style>
<text x="90" y="35" class="title" text-anchor="start">Top feature importance</text>
<text x="90" y="58" class="subtitle" text-anchor="start">Permutation importance on the held-out test window.</text>
<line x1="90" y1="540" x2="940" y2="540" stroke="#111827"/>
<line x1="90" y1="80" x2="90" y2="540" stroke="#111827"/>
<text x="515.0" y="600" class="axis" text-anchor="middle">feature</text>
<text x="24" y="310.0" class="axis" text-anchor="middle" transform="rotate(-90 24 310.0)">importance drop</text>
<line x1="90" y1="540.0" x2="940" y2="540.0" stroke="#e5e7eb"/>
<text x="80" y="544.0" class="axis" text-anchor="end">0.000</text>
<line x1="90" y1="425.0" x2="940" y2="425.0" stroke="#e5e7eb"/>
<text x="80" y="429.0" class="axis" text-anchor="end">44.658</text>
<line x1="90" y1="310.0" x2="940" y2="310.0" stroke="#e5e7eb"/>
<text x="80" y="314.0" class="axis" text-anchor="end">89.316</text>
<line x1="90" y1="195.0" x2="940" y2="195.0" stroke="#e5e7eb"/>
<text x="80" y="199.0" class="axis" text-anchor="end">133.974</text>
<line x1="90" y1="80.0" x2="940" y2="80.0" stroke="#e5e7eb"/>
<text x="80" y="84.0" class="axis" text-anchor="end">178.632</text>
<rect x="100.625" y="139.99999999999994" width="49.58333333333333" height="400.00000000000006" fill="#2563eb" opacity="0.85"/>
<text x="125.41666666666666" y="131.99999999999994" class="small" text-anchor="middle">155.332</text>
<text x="125.41666666666666" y="568" class="axis" text-anchor="middle" transform="rotate(-25 125.41666666666666 568)">hr</text>
<rect x="171.45833333333331" y="372.02420213888706" width="49.58333333333333" height="167.97579786111294" fill="#2563eb" opacity="0.85"/>
<text x="196.24999999999997" y="364.02420213888706" class="small" text-anchor="middle">65.230</text>
<text x="196.24999999999997" y="568" class="axis" text-anchor="middle" transform="rotate(-25 196.24999999999997 568)">hour_sin</text>
<rect x="242.29166666666666" y="388.68599009145595" width="49.58333333333333" height="151.31400990854405" fill="#2563eb" opacity="0.85"/>
<text x="267.0833333333333" y="380.68599009145595" class="small" text-anchor="middle">58.760</text>
<text x="267.0833333333333" y="568" class="axis" text-anchor="middle" transform="rotate(-25 267.0833333333333 568)">workingday</text>
<rect x="313.125" y="444.6018665912988" width="49.58333333333333" height="95.3981334087012" fill="#2563eb" opacity="0.85"/>
<text x="337.9166666666667" y="436.6018665912988" class="small" text-anchor="middle">37.046</text>
<text x="337.9166666666667" y="568" class="axis" text-anchor="middle" transform="rotate(-25 337.9166666666667 568)">hour_cos</text>
<rect x="383.9583333333333" y="446.4905827751145" width="49.58333333333333" height="93.50941722488551" fill="#2563eb" opacity="0.85"/>
<text x="408.75" y="438.4905827751145" class="small" text-anchor="middle">36.313</text>
<text x="408.75" y="568" class="axis" text-anchor="middle" transform="rotate(-25 408.75 568)">temp</text>
<rect x="454.79166666666663" y="493.6553227163905" width="49.58333333333333" height="46.344677283609485" fill="#2563eb" opacity="0.85"/>
<text x="479.5833333333333" y="485.6553227163905" class="small" text-anchor="middle">17.997</text>
<text x="479.5833333333333" y="568" class="axis" text-anchor="middle" transform="rotate(-25 479.5833333333333 568)">hum</text>
<rect x="525.625" y="510.1508888983186" width="49.58333333333333" height="29.849111101681387" fill="#2563eb" opacity="0.85"/>
<text x="550.4166666666666" y="502.1508888983186" class="small" text-anchor="middle">11.591</text>
<text x="550.4166666666666" y="568" class="axis" text-anchor="middle" transform="rotate(-25 550.4166666666666 568)">atemp</text>
<rect x="596.4583333333333" y="516.5662640825846" width="49.58333333333333" height="23.433735917415447" fill="#2563eb" opacity="0.85"/>
<text x="621.2499999999999" y="508.56626408258455" class="small" text-anchor="middle">9.100</text>
<text x="621.2499999999999" y="568" class="axis" text-anchor="middle" transform="rotate(-25 621.2499999999999 568)">day_of_year</text>
<rect x="667.2916666666666" y="519.3100671743337" width="49.58333333333333" height="20.689932825666347" fill="#2563eb" opacity="0.85"/>
<text x="692.0833333333333" y="511.31006717433365" class="small" text-anchor="middle">8.035</text>
<text x="692.0833333333333" y="568" class="axis" text-anchor="middle" transform="rotate(-25 692.0833333333333 568)">weathersit</text>
<rect x="738.125" y="521.963189383413" width="49.58333333333333" height="18.03681061658699" fill="#2563eb" opacity="0.85"/>
<text x="762.9166666666666" y="513.963189383413" class="small" text-anchor="middle">7.004</text>
<text x="762.9166666666666" y="568" class="axis" text-anchor="middle" transform="rotate(-25 762.9166666666666 568)">weekday</text>
<rect x="808.9583333333333" y="534.6165032533535" width="49.58333333333333" height="5.383496746646529" fill="#2563eb" opacity="0.85"/>
<text x="833.7499999999999" y="526.6165032533535" class="small" text-anchor="middle">2.091</text>
<text x="833.7499999999999" y="568" class="axis" text-anchor="middle" transform="rotate(-25 833.7499999999999 568)">weekday_cos</text>
<rect x="879.7916666666666" y="535.8640646273641" width="49.58333333333333" height="4.135935372635913" fill="#2563eb" opacity="0.85"/>
<text x="904.5833333333333" y="527.8640646273641" class="small" text-anchor="middle">1.606</text>
<text x="904.5833333333333" y="568" class="axis" text-anchor="middle" transform="rotate(-25 904.5833333333333 568)">weekday_sin</text>
</svg>