<svg xmlns="http://www.w3.org/2000/svg" width="980" height="620" viewBox="0 0 980 620">
<rect width="100%" height="100%" fill="white" />
<style>
text { font-family: Arial, sans-serif; fill: #111827; }
.small { font-size: 12px; }
.axis { font-size: 12px; fill: #374151; }
.title { font-size: 20px; font-weight: bold; }
.subtitle { font-size: 13px; fill: #4b5563; }
.legend { font-size: 12px; }
</style>
<text x="90" y="35" class="title" text-anchor="start">Target histogram</text>
<text x="90" y="58" class="subtitle" text-anchor="start">California housing target distribution.</text>
<line x1="90" y1="540" x2="940" y2="540" stroke="#111827"/>
<line x1="90" y1="80" x2="90" y2="540" stroke="#111827"/>
<text x="515.0" y="600" class="axis" text-anchor="middle">target bucket</text>
<text x="24" y="310.0" class="axis" text-anchor="middle" transform="rotate(-90 24 310.0)">count</text>
<line x1="90" y1="540.0" x2="940" y2="540.0" stroke="#e5e7eb"/>
<text x="80" y="544.0" class="axis" text-anchor="end">0.000</text>
<line x1="90" y1="425.0" x2="940" y2="425.0" stroke="#e5e7eb"/>
<text x="80" y="429.0" class="axis" text-anchor="end">1070.075</text>
<line x1="90" y1="310.0" x2="940" y2="310.0" stroke="#e5e7eb"/>
<text x="80" y="314.0" class="axis" text-anchor="end">2140.150</text>
<line x1="90" y1="195.0" x2="940" y2="195.0" stroke="#e5e7eb"/>
<text x="80" y="199.0" class="axis" text-anchor="end">3210.225</text>
<line x1="90" y1="80.0" x2="940" y2="80.0" stroke="#e5e7eb"/>
<text x="80" y="84.0" class="axis" text-anchor="end">4280.300</text>
<rect x="100.625" y="492.2837184309511" width="49.58333333333333" height="47.716281569048874" fill="#2563eb" opacity="0.85"/>
<text x="125.41666666666666" y="484.2837184309511" class="small" text-anchor="middle">444</text>
<text x="125.41666666666666" y="568" class="axis" text-anchor="middle" transform="rotate(-25 125.41666666666666 568)">0.1-0.6</text>
<rect x="171.45833333333331" y="239.08651262761947" width="49.58333333333333" height="300.91348737238053" fill="#2563eb" opacity="0.85"/>
<text x="196.24999999999997" y="231.08651262761947" class="small" text-anchor="middle">2800</text>
<text x="196.24999999999997" y="568" class="axis" text-anchor="middle" transform="rotate(-25 196.24999999999997 568)">0.6-1.0</text>
<rect x="242.29166666666666" y="204.37399247716274" width="49.58333333333333" height="335.62600752283726" fill="#2563eb" opacity="0.85"/>
<text x="267.0833333333333" y="196.37399247716274" class="small" text-anchor="middle">3123</text>
<text x="267.0833333333333" y="568" class="axis" text-anchor="middle" transform="rotate(-25 267.0833333333333 568)">1.0-1.4</text>
<rect x="313.125" y="139.9999999999999" width="49.58333333333333" height="400.0000000000001" fill="#2563eb" opacity="0.85"/>
<text x="337.9166666666667" y="131.9999999999999" class="small" text-anchor="middle">3722</text>
<text x="337.9166666666667" y="568" class="axis" text-anchor="middle" transform="rotate(-25 337.9166666666667 568)">1.4-1.8</text>
<rect x="383.9583333333333" y="242.0956475013433" width="49.58333333333333" height="297.9043524986567" fill="#2563eb" opacity="0.85"/>
<text x="408.75" y="234.0956475013433" class="small" text-anchor="middle">2772</text>
<text x="408.75" y="568" class="axis" text-anchor="middle" transform="rotate(-25 408.75 568)">1.8-2.2</text>
<rect x="454.79166666666663" y="293.143471252015" width="49.58333333333333" height="246.856528747985" fill="#2563eb" opacity="0.85"/>
<text x="479.5833333333333" y="285.143471252015" class="small" text-anchor="middle">2297</text>
<text x="479.5833333333333" y="568" class="axis" text-anchor="middle" transform="rotate(-25 479.5833333333333 568)">2.2-2.6</text>
<rect x="525.625" y="369.76894142933907" width="49.58333333333333" height="170.23105857066093" fill="#2563eb" opacity="0.85"/>
<text x="550.4166666666666" y="361.76894142933907" class="small" text-anchor="middle">1584</text>
<text x="550.4166666666666" y="568" class="axis" text-anchor="middle" transform="rotate(-25 550.4166666666666 568)">2.6-3.0</text>
<rect x="596.4583333333333" y="435.7549704459968" width="49.58333333333333" height="104.24502955400322" fill="#2563eb" opacity="0.85"/>
<text x="621.2499999999999" y="427.7549704459968" class="small" text-anchor="middle">970</text>
<text x="621.2499999999999" y="568" class="axis" text-anchor="middle" transform="rotate(-25 621.2499999999999 568)">3.0-3.4</text>
<rect x="667.2916666666666" y="444.4599677592692" width="49.58333333333333" height="95.5400322407308" fill="#2563eb" opacity="0.85"/>
<text x="692.0833333333333" y="436.4599677592692" class="small" text-anchor="middle">889</text>
<text x="692.0833333333333" y="568" class="axis" text-anchor="middle" transform="rotate(-25 692.0833333333333 568)">3.4-3.8</text>
<rect x="738.125" y="487.3401397098334" width="49.58333333333333" height="52.65986029016659" fill="#2563eb" opacity="0.85"/>
<text x="762.9166666666666" y="479.3401397098334" class="small" text-anchor="middle">490</text>
<text x="762.9166666666666" y="568" class="axis" text-anchor="middle" transform="rotate(-25 762.9166666666666 568)">3.8-4.2</text>
<rect x="808.9583333333333" y="501.09618484685654" width="49.58333333333333" height="38.903815153143455" fill="#2563eb" opacity="0.85"/>
<text x="833.7499999999999" y="493.09618484685654" class="small" text-anchor="middle">362</text>
<text x="833.7499999999999" y="568" class="axis" text-anchor="middle" transform="rotate(-25 833.7499999999999 568)">4.2-4.6</text>
<rect x="879.7916666666666" y="412.4341751746373" width="49.58333333333333" height="127.56582482536271" fill="#2563eb" opacity="0.85"/>
<text x="904.5833333333333" y="404.4341751746373" class="small" text-anchor="middle">1187</text>
<text x="904.5833333333333" y="568" class="axis" text-anchor="middle" transform="rotate(-25 904.5833333333333 568)">4.6-5.0</text>
</svg>