<svg xmlns="http://www.w3.org/2000/svg" width="980" height="620" viewBox="0 0 980 620">
<rect width="100%" height="100%" fill="white" />
<style>
text { font-family: Arial, sans-serif; fill: #111827; }
.small { font-size: 12px; }
.axis { font-size: 12px; fill: #374151; }
.title { font-size: 20px; font-weight: bold; }
.subtitle { font-size: 13px; fill: #4b5563; }
.legend { font-size: 12px; }
</style>
<text x="90" y="35" class="title" text-anchor="start">Metric vs training time</text>
<text x="90" y="58" class="subtitle" text-anchor="start">Higher is better; shows the quality-cost tradeoff.</text>
<line x1="90" y1="540" x2="940" y2="540" stroke="#111827"/>
<line x1="90" y1="80" x2="90" y2="540" stroke="#111827"/>
<line x1="90" y1="540.0" x2="940" y2="540.0" stroke="#e5e7eb"/>
<text x="80" y="544.0" class="axis" text-anchor="end">0.435</text>
<line x1="90" y1="425.0" x2="940" y2="425.0" stroke="#e5e7eb"/>
<text x="80" y="429.0" class="axis" text-anchor="end">0.562</text>
<line x1="90" y1="309.99999999999994" x2="940" y2="309.99999999999994" stroke="#e5e7eb"/>
<text x="80" y="313.99999999999994" class="axis" text-anchor="end">0.688</text>
<line x1="90" y1="195.0" x2="940" y2="195.0" stroke="#e5e7eb"/>
<text x="80" y="199.0" class="axis" text-anchor="end">0.815</text>
<line x1="90" y1="80.0" x2="940" y2="80.0" stroke="#e5e7eb"/>
<text x="80" y="84.0" class="axis" text-anchor="end">0.942</text>
<line x1="90.0" y1="80" x2="90.0" y2="540" stroke="#f3f4f6"/>
<text x="90.0" y="562" class="axis" text-anchor="middle">2.09</text>
<line x1="260.0" y1="80" x2="260.0" y2="540" stroke="#f3f4f6"/>
<text x="260.0" y="562" class="axis" text-anchor="middle">7.61</text>
<line x1="430.0" y1="80" x2="430.0" y2="540" stroke="#f3f4f6"/>
<text x="430.0" y="562" class="axis" text-anchor="middle">13.12</text>
<line x1="600.0" y1="80" x2="600.0" y2="540" stroke="#f3f4f6"/>
<text x="600.0" y="562" class="axis" text-anchor="middle">18.64</text>
<line x1="770.0" y1="80" x2="770.0" y2="540" stroke="#f3f4f6"/>
<text x="770.0" y="562" class="axis" text-anchor="middle">24.15</text>
<line x1="940.0" y1="80" x2="940.0" y2="540" stroke="#f3f4f6"/>
<text x="940.0" y="562" class="axis" text-anchor="middle">29.66</text>
<text x="515.0" y="600" class="axis" text-anchor="middle">fit time (sec)</text>
<text x="24" y="310.0" class="axis" text-anchor="middle" transform="rotate(-90 24 310.0)">macro_f1</text>
<polyline points="106.34615384615384,519.0909090909091 129.0305886439574,354.430406548934 278.8448056497192,210.60606549615886 270.3606379839714,100.90909090909088 923.6538461538462,266.07354705824145" fill="none" stroke="#2563eb" stroke-width="3"/>
<circle cx="106.34615384615384" cy="519.0909090909091" r="3.5" fill="#2563eb"/>
<circle cx="129.0305886439574" cy="354.430406548934" r="3.5" fill="#2563eb"/>
<circle cx="278.8448056497192" cy="210.60606549615886" r="3.5" fill="#2563eb"/>
<circle cx="270.3606379839714" cy="100.90909090909088" r="3.5" fill="#2563eb"/>
<circle cx="923.6538461538462" cy="266.07354705824145" r="3.5" fill="#2563eb"/>
<line x1="760" y1="28" x2="780" y2="28" stroke="#2563eb" stroke-width="3"/>
<text x="788" y="32" class="legend" text-anchor="start">macro_f1</text>
</svg>