<svg xmlns="http://www.w3.org/2000/svg" width="980" height="620" viewBox="0 0 980 620">
<rect width="100%" height="100%" fill="white" />
<style>
text { font-family: Arial, sans-serif; fill: #111827; }
.small { font-size: 12px; }
.axis { font-size: 12px; fill: #374151; }
.title { font-size: 20px; font-weight: bold; }
.subtitle { font-size: 13px; fill: #4b5563; }
.legend { font-size: 12px; }
</style>
<text x="90" y="35" class="title" text-anchor="start">Score distribution</text>
<text x="90" y="58" class="subtitle" text-anchor="start">Confidence profile for best model: xgboost_gpu.</text>
<line x1="90" y1="540" x2="940" y2="540" stroke="#111827"/>
<line x1="90" y1="80" x2="90" y2="540" stroke="#111827"/>
<text x="515.0" y="600" class="axis" text-anchor="middle">score bucket</text>
<text x="24" y="310.0" class="axis" text-anchor="middle" transform="rotate(-90 24 310.0)">count</text>
<line x1="90" y1="540.0" x2="940" y2="540.0" stroke="#e5e7eb"/>
<text x="80" y="544.0" class="axis" text-anchor="end">0.000</text>
<line x1="90" y1="425.0" x2="940" y2="425.0" stroke="#e5e7eb"/>
<text x="80" y="429.0" class="axis" text-anchor="end">15847.000</text>
<line x1="90" y1="310.0" x2="940" y2="310.0" stroke="#e5e7eb"/>
<text x="80" y="314.0" class="axis" text-anchor="end">31694.000</text>
<line x1="90" y1="195.0" x2="940" y2="195.0" stroke="#e5e7eb"/>
<text x="80" y="199.0" class="axis" text-anchor="end">47541.000</text>
<line x1="90" y1="80.0" x2="940" y2="80.0" stroke="#e5e7eb"/>
<text x="80" y="84.0" class="axis" text-anchor="end">63388.000</text>
<rect x="102.75" y="540.0" width="59.49999999999999" height="0.0" fill="#2563eb" opacity="0.85"/>
<text x="132.5" y="532.0" class="small" text-anchor="middle">0</text>
<text x="132.5" y="568" class="axis" text-anchor="middle" transform="rotate(-25 132.5 568)">0.0-0.1</text>
<rect x="187.75" y="540.0" width="59.49999999999999" height="0.0" fill="#2563eb" opacity="0.85"/>
<text x="217.5" y="532.0" class="small" text-anchor="middle">0</text>
<text x="217.5" y="568" class="axis" text-anchor="middle" transform="rotate(-25 217.5 568)">0.1-0.2</text>
<rect x="272.75" y="540.0" width="59.49999999999999" height="0.0" fill="#2563eb" opacity="0.85"/>
<text x="302.5" y="532.0" class="small" text-anchor="middle">0</text>
<text x="302.5" y="568" class="axis" text-anchor="middle" transform="rotate(-25 302.5 568)">0.2-0.3</text>
<rect x="357.75" y="539.7750362844703" width="59.49999999999999" height="0.22496371552972505" fill="#2563eb" opacity="0.85"/>
<text x="387.5" y="531.7750362844703" class="small" text-anchor="middle">31</text>
<text x="387.5" y="568" class="axis" text-anchor="middle" transform="rotate(-25 387.5 568)">0.3-0.4</text>
<rect x="442.75" y="537.634252539913" width="59.49999999999999" height="2.36574746008705" fill="#2563eb" opacity="0.85"/>
<text x="472.5" y="529.634252539913" class="small" text-anchor="middle">326</text>
<text x="472.5" y="568" class="axis" text-anchor="middle" transform="rotate(-25 472.5 568)">0.4-0.5</text>
<rect x="527.75" y="503.4252539912917" width="59.49999999999999" height="36.5747460087083" fill="#2563eb" opacity="0.85"/>
<text x="557.5" y="495.4252539912917" class="small" text-anchor="middle">5040</text>
<text x="557.5" y="568" class="axis" text-anchor="middle" transform="rotate(-25 557.5 568)">0.5-0.6</text>
<rect x="612.75" y="499.1582002902758" width="59.49999999999999" height="40.84179970972423" fill="#2563eb" opacity="0.85"/>
<text x="642.5" y="491.1582002902758" class="small" text-anchor="middle">5628</text>
<text x="642.5" y="568" class="axis" text-anchor="middle" transform="rotate(-25 642.5 568)">0.6-0.7</text>
<rect x="697.75" y="483.577648766328" width="59.49999999999999" height="56.422351233671975" fill="#2563eb" opacity="0.85"/>
<text x="727.5" y="475.577648766328" class="small" text-anchor="middle">7775</text>
<text x="727.5" y="568" class="axis" text-anchor="middle" transform="rotate(-25 727.5 568)">0.7-0.8</text>
<rect x="782.75" y="443.9767779390421" width="59.49999999999999" height="96.02322206095789" fill="#2563eb" opacity="0.85"/>
<text x="812.5" y="435.9767779390421" class="small" text-anchor="middle">13232</text>
<text x="812.5" y="568" class="axis" text-anchor="middle" transform="rotate(-25 812.5 568)">0.8-0.9</text>
<rect x="867.75" y="139.99999999999994" width="59.49999999999999" height="400.00000000000006" fill="#2563eb" opacity="0.85"/>
<text x="897.5" y="131.99999999999994" class="small" text-anchor="middle">55120</text>
<text x="897.5" y="568" class="axis" text-anchor="middle" transform="rotate(-25 897.5 568)">0.9-1.0</text>
</svg>