<svg xmlns="http://www.w3.org/2000/svg" width="980" height="620" viewBox="0 0 980 620">
<rect width="100%" height="100%" fill="white" />
<style>
text { font-family: Arial, sans-serif; fill: #111827; }
.small { font-size: 12px; }
.axis { font-size: 12px; fill: #374151; }
.title { font-size: 20px; font-weight: bold; }
.subtitle { font-size: 13px; fill: #4b5563; }
.legend { font-size: 12px; }
</style>
<text x="90" y="35" class="title" text-anchor="start">Validation curve</text>
<text x="90" y="58" class="subtitle" text-anchor="start">Effect of max_leaf_nodes under time-aware CV.</text>
<line x1="90" y1="540" x2="940" y2="540" stroke="#111827"/>
<line x1="90" y1="80" x2="90" y2="540" stroke="#111827"/>
<line x1="90" y1="540.0" x2="940" y2="540.0" stroke="#e5e7eb"/>
<text x="80" y="544.0" class="axis" text-anchor="end">67.098</text>
<line x1="90" y1="424.9999999999995" x2="940" y2="424.9999999999995" stroke="#e5e7eb"/>
<text x="80" y="428.9999999999995" class="axis" text-anchor="end">68.687</text>
<line x1="90" y1="310.0" x2="940" y2="310.0" stroke="#e5e7eb"/>
<text x="80" y="314.0" class="axis" text-anchor="end">70.277</text>
<line x1="90" y1="195.0000000000005" x2="940" y2="195.0000000000005" stroke="#e5e7eb"/>
<text x="80" y="199.0000000000005" class="axis" text-anchor="end">71.867</text>
<line x1="90" y1="80.0" x2="940" y2="80.0" stroke="#e5e7eb"/>
<text x="80" y="84.0" class="axis" text-anchor="end">73.456</text>
<line x1="90.0" y1="80" x2="90.0" y2="540" stroke="#f3f4f6"/>
<text x="90.0" y="562" class="axis" text-anchor="middle">12.76</text>
<line x1="260.0" y1="80" x2="260.0" y2="540" stroke="#f3f4f6"/>
<text x="260.0" y="562" class="axis" text-anchor="middle">36.06</text>
<line x1="430.0" y1="80" x2="430.0" y2="540" stroke="#f3f4f6"/>
<text x="430.0" y="562" class="axis" text-anchor="middle">59.35</text>
<line x1="600.0" y1="80" x2="600.0" y2="540" stroke="#f3f4f6"/>
<text x="600.0" y="562" class="axis" text-anchor="middle">82.65</text>
<line x1="770.0" y1="80" x2="770.0" y2="540" stroke="#f3f4f6"/>
<text x="770.0" y="562" class="axis" text-anchor="middle">105.94</text>
<line x1="940.0" y1="80" x2="940.0" y2="540" stroke="#f3f4f6"/>
<text x="940.0" y="562" class="axis" text-anchor="middle">129.24</text>
<text x="515.0" y="600" class="axis" text-anchor="middle">max_leaf_nodes</text>
<text x="24" y="310.0" class="axis" text-anchor="middle" transform="rotate(-90 24 310.0)">RMSE</text>
<polyline points="106.34615384615384,519.0909090909087 223.1043956043956,503.9535227542971 456.6208791208791,295.76237879575467 923.6538461538461,100.90909090909128" fill="none" stroke="#2563eb" stroke-width="3"/>
<circle cx="106.34615384615384" cy="519.0909090909087" r="3.5" fill="#2563eb"/>
<circle cx="223.1043956043956" cy="503.9535227542971" r="3.5" fill="#2563eb"/>
<circle cx="456.6208791208791" cy="295.76237879575467" r="3.5" fill="#2563eb"/>
<circle cx="923.6538461538461" cy="100.90909090909128" r="3.5" fill="#2563eb"/>
<line x1="760" y1="28" x2="780" y2="28" stroke="#2563eb" stroke-width="3"/>
<text x="788" y="32" class="legend" text-anchor="start">mean CV RMSE</text>
</svg>