<svg xmlns="http://www.w3.org/2000/svg" width="980" height="620" viewBox="0 0 980 620">
<rect width="100%" height="100%" fill="white" />
<style>
text { font-family: Arial, sans-serif; fill: #111827; }
.small { font-size: 12px; }
.axis { font-size: 12px; fill: #374151; }
.title { font-size: 20px; font-weight: bold; }
.subtitle { font-size: 13px; fill: #4b5563; }
.legend { font-size: 12px; }
</style>
<text x="90" y="35" class="title" text-anchor="start">Confidence vs correctness</text>
<text x="90" y="58" class="subtitle" text-anchor="start">Higher confidence bins should correspond to higher observed accuracy.</text>
<line x1="90" y1="540" x2="940" y2="540" stroke="#111827"/>
<line x1="90" y1="80" x2="90" y2="540" stroke="#111827"/>
<line x1="90" y1="540.0" x2="940" y2="540.0" stroke="#e5e7eb"/>
<text x="80" y="544.0" class="axis" text-anchor="end">0.000</text>
<line x1="90" y1="425.0" x2="940" y2="425.0" stroke="#e5e7eb"/>
<text x="80" y="429.0" class="axis" text-anchor="end">0.255</text>
<line x1="90" y1="310.0" x2="940" y2="310.0" stroke="#e5e7eb"/>
<text x="80" y="314.0" class="axis" text-anchor="end">0.510</text>
<line x1="90" y1="195.0" x2="940" y2="195.0" stroke="#e5e7eb"/>
<text x="80" y="199.0" class="axis" text-anchor="end">0.765</text>
<line x1="90" y1="80.0" x2="940" y2="80.0" stroke="#e5e7eb"/>
<text x="80" y="84.0" class="axis" text-anchor="end">1.020</text>
<line x1="90.0" y1="80" x2="90.0" y2="540" stroke="#f3f4f6"/>
<text x="90.0" y="562" class="axis" text-anchor="middle">0.03</text>
<line x1="260.0" y1="80" x2="260.0" y2="540" stroke="#f3f4f6"/>
<text x="260.0" y="562" class="axis" text-anchor="middle">0.22</text>
<line x1="429.99999999999994" y1="80" x2="429.99999999999994" y2="540" stroke="#f3f4f6"/>
<text x="429.99999999999994" y="562" class="axis" text-anchor="middle">0.41</text>
<line x1="600.0" y1="80" x2="600.0" y2="540" stroke="#f3f4f6"/>
<text x="600.0" y="562" class="axis" text-anchor="middle">0.59</text>
<line x1="770.0" y1="80" x2="770.0" y2="540" stroke="#f3f4f6"/>
<text x="770.0" y="562" class="axis" text-anchor="middle">0.78</text>
<line x1="940.0" y1="80" x2="940.0" y2="540" stroke="#f3f4f6"/>
<text x="940.0" y="562" class="axis" text-anchor="middle">0.97</text>
<text x="515.0" y="600" class="axis" text-anchor="middle">predicted probability bin</text>
<text x="24" y="310.0" class="axis" text-anchor="middle" transform="rotate(-90 24 310.0)">accuracy</text>
<polyline points="106.34615384615384,95.5589403032057 197.1581196581197,112.42377989119802 287.97008547008545,151.13811915950959 378.7820512820513,161.47219543555133 469.5940170940171,232.98077537203807 560.4059829059829,391.6709009185069 651.2179487179488,321.7836812144212 742.0299145299145,263.79401587624665 832.8418803418804,196.82973526110783 923.6538461538461,123.710407239819" fill="none" stroke="#7c3aed" stroke-width="3"/>
<circle cx="106.34615384615384" cy="95.5589403032057" r="3.5" fill="#7c3aed"/>
<circle cx="197.1581196581197" cy="112.42377989119802" r="3.5" fill="#7c3aed"/>
<circle cx="287.97008547008545" cy="151.13811915950959" r="3.5" fill="#7c3aed"/>
<circle cx="378.7820512820513" cy="161.47219543555133" r="3.5" fill="#7c3aed"/>
<circle cx="469.5940170940171" cy="232.98077537203807" r="3.5" fill="#7c3aed"/>
<circle cx="560.4059829059829" cy="391.6709009185069" r="3.5" fill="#7c3aed"/>
<circle cx="651.2179487179488" cy="321.7836812144212" r="3.5" fill="#7c3aed"/>
<circle cx="742.0299145299145" cy="263.79401587624665" r="3.5" fill="#7c3aed"/>
<circle cx="832.8418803418804" cy="196.82973526110783" r="3.5" fill="#7c3aed"/>
<circle cx="923.6538461538461" cy="123.710407239819" r="3.5" fill="#7c3aed"/>
<line x1="760" y1="28" x2="780" y2="28" stroke="#7c3aed" stroke-width="3"/>
<text x="788" y="32" class="legend" text-anchor="start">random_forest</text>
</svg>