<svg xmlns="http://www.w3.org/2000/svg" width="980" height="620" viewBox="0 0 980 620">
<rect width="100%" height="100%" fill="white" />
<style>
text { font-family: Arial, sans-serif; fill: #111827; }
.small { font-size: 12px; }
.axis { font-size: 12px; fill: #374151; }
.title { font-size: 20px; font-weight: bold; }
.subtitle { font-size: 13px; fill: #4b5563; }
.legend { font-size: 12px; }
</style>
<text x="90" y="35" class="title" text-anchor="start">Learning curve</text>
<text x="90" y="58" class="subtitle" text-anchor="start">Validation RMSE across training fractions.</text>
<line x1="90" y1="540" x2="940" y2="540" stroke="#111827"/>
<line x1="90" y1="80" x2="90" y2="540" stroke="#111827"/>
<line x1="90" y1="540.0" x2="940" y2="540.0" stroke="#e5e7eb"/>
<text x="80" y="544.0" class="axis" text-anchor="end">0.475</text>
<line x1="90" y1="425.00000000000006" x2="940" y2="425.00000000000006" stroke="#e5e7eb"/>
<text x="80" y="429.00000000000006" class="axis" text-anchor="end">0.497</text>
<line x1="90" y1="309.9999999999999" x2="940" y2="309.9999999999999" stroke="#e5e7eb"/>
<text x="80" y="313.9999999999999" class="axis" text-anchor="end">0.519</text>
<line x1="90" y1="195.00000000000023" x2="940" y2="195.00000000000023" stroke="#e5e7eb"/>
<text x="80" y="199.00000000000023" class="axis" text-anchor="end">0.541</text>
<line x1="90" y1="80.0" x2="940" y2="80.0" stroke="#e5e7eb"/>
<text x="80" y="84.0" class="axis" text-anchor="end">0.563</text>
<line x1="90.0" y1="80" x2="90.0" y2="540" stroke="#f3f4f6"/>
<text x="90.0" y="562" class="axis" text-anchor="middle">0.08</text>
<line x1="260.0" y1="80" x2="260.0" y2="540" stroke="#f3f4f6"/>
<text x="260.0" y="562" class="axis" text-anchor="middle">0.27</text>
<line x1="430.0" y1="80" x2="430.0" y2="540" stroke="#f3f4f6"/>
<text x="430.0" y="562" class="axis" text-anchor="middle">0.46</text>
<line x1="600.0" y1="80" x2="600.0" y2="540" stroke="#f3f4f6"/>
<text x="600.0" y="562" class="axis" text-anchor="middle">0.64</text>
<line x1="770.0" y1="80" x2="770.0" y2="540" stroke="#f3f4f6"/>
<text x="770.0" y="562" class="axis" text-anchor="middle">0.83</text>
<line x1="940.0" y1="80" x2="940.0" y2="540" stroke="#f3f4f6"/>
<text x="940.0" y="562" class="axis" text-anchor="middle">1.02</text>
<text x="515.0" y="600" class="axis" text-anchor="middle">training fraction</text>
<text x="24" y="310.0" class="axis" text-anchor="middle" transform="rotate(-90 24 310.0)">RMSE</text>
<polyline points="106.34615384615384,100.90909090909088 287.97008547008545,391.14627030416364 560.4059829059829,473.1135033482336 923.6538461538461,519.0909090909091" fill="none" stroke="#2563eb" stroke-width="3"/>
<circle cx="106.34615384615384" cy="100.90909090909088" r="3.5" fill="#2563eb"/>
<circle cx="287.97008547008545" cy="391.14627030416364" r="3.5" fill="#2563eb"/>
<circle cx="560.4059829059829" cy="473.1135033482336" r="3.5" fill="#2563eb"/>
<circle cx="923.6538461538461" cy="519.0909090909091" r="3.5" fill="#2563eb"/>
<line x1="760" y1="28" x2="780" y2="28" stroke="#2563eb" stroke-width="3"/>
<text x="788" y="32" class="legend" text-anchor="start">hist_gbdt</text>
</svg>